<svg width="86" height="83" viewBox="0 0 86 83" fill="none" xmlns="http://www.w3.org/2000/svg">
<rect width="86" height="83" rx="5" fill="#033962"/>
<path d="M13.35 60V24.5H21.5V39.85L35.3 24.5H45.1L28.95 42.25C29.7167 42.65 30.4 43.1667 31 43.8C31.6333 44.4333 32.2 45.1333 32.7 45.9L35.75 50.85C36.3167 51.75 36.9167 52.4 37.55 52.8C38.2167 53.1667 39.0167 53.35 39.95 53.35C40.5833 53.35 41.1833 53.2833 41.75 53.15C42.3167 52.9833 42.8833 52.7167 43.45 52.35L45.3 58.65C44.6 59.2167 43.6667 59.6667 42.5 60C41.3667 60.3333 40.1833 60.5 38.95 60.5C34.5833 60.5 31.3333 58.7667 29.2 55.3L24.95 48.5C24.45 47.7 23.95 47.1 23.45 46.7C22.95 46.2667 22.3 45.9833 21.5 45.85V60H13.35ZM76.4422 24.5L75.3922 31.65H64.6422V60H56.4422V31.65H45.1922V24.5H76.4422Z" fill="#D4E6F1"/>
</svg>
