<svg width="196" height="202" viewBox="0 0 196 202" fill="none" xmlns="http://www.w3.org/2000/svg">
<path fill-rule="evenodd" clip-rule="evenodd" d="M94.4372 0.132327C122.847 0.506255 147.857 17.246 167.067 38.1799C185.384 58.1407 196.03 83.7187 196 110.81C195.97 137.87 187.131 165.301 166.905 183.278C147.577 200.456 120.295 201.21 94.4372 201.078C68.7648 200.946 41.2605 200.284 22.7071 182.54C3.86938 164.524 0.55919 136.871 0.0537452 110.81C-0.46469 84.0789 2.52134 56.5859 19.8697 36.2425C38.4987 14.3975 65.7301 -0.245516 94.4372 0.132327Z" fill="#AFD7ED"/>
<path fill-rule="evenodd" clip-rule="evenodd" d="M190.896 78.6419C194.243 88.9254 196.012 99.7414 196 110.81C195.97 137.87 187.131 165.301 166.905 183.278C147.577 200.456 120.295 201.21 94.4372 201.078C68.7648 200.946 41.2605 200.284 22.7071 182.54C3.86938 164.524 0.55919 136.871 0.0537452 110.81C-0.0413358 105.908 -0.0185423 100.979 0.189105 96.0745C14.3457 94.0782 31.5447 94.112 48.9261 101.638C88.2161 118.65 118.858 118.65 142.618 96.532C154.397 85.5665 171.136 78.2493 190.896 78.6419Z" fill="url(#paint0_linear_549_5459)"/>
<defs>
<linearGradient id="paint0_linear_549_5459" x1="0.4206" y1="78.6964" x2="201.749" y2="88.193" gradientUnits="userSpaceOnUse">
<stop stop-color="#AED6EC"/>
<stop offset="0.369792" stop-color="#B0C9F4"/>
<stop offset="0.708333" stop-color="#B1C1F8"/>
<stop offset="1" stop-color="#B1BBFC"/>
</linearGradient>
</defs>
</svg>
