<svg width="3065" height="16" viewBox="0 0 3065 16" fill="none" xmlns="http://www.w3.org/2000/svg">
<path fill-rule="evenodd" clip-rule="evenodd" d="M144.621 2.00311C145.44 2.00104 146.262 2 147.087 2C147.924 2 148.758 2.00103 149.589 2.00307L149.59 1.50307L149.593 0.503075L149.594 0.00307637C148.761 0.00103134 147.925 0 147.087 0C146.26 0 145.437 0.00104487 144.616 0.0031181L144.617 0.503116L144.62 1.50311L144.621 2.00311ZM695.338 2.00308C696.193 2.00103 697.053 2 697.921 2C698.763 2 699.602 2.00097 700.438 2.00291L700.439 1.50291L700.442 0.50291L700.443 0.00291151C699.606 0.000975907 698.765 0 697.921 0C697.052 0 696.189 0.00103402 695.333 0.00308442L695.334 0.503083L695.337 1.50308L695.338 2.00308ZM1189.54 2.00216C1190.37 2.00072 1191.2 2 1192.04 2C1192.89 2 1193.74 2.00075 1194.59 2.00224L1194.59 1.50224L1194.59 0.502246L1194.59 0.0022468C1193.74 0.000752628 1192.89 0 1192.04 0C1191.2 0 1190.37 0.000724137 1189.54 0.00216198L1189.54 0.502161L1189.54 1.50216L1189.54 2.00216ZM1179.72 2.05355C1181.34 2.03933 1182.97 2.02786 1184.62 2.01924L1184.61 1.51925L1184.61 0.519265L1184.61 0.0192716C1182.96 0.0278999 1181.32 0.0393824 1179.71 0.0536322L1179.71 0.553613L1179.72 1.55357L1179.72 2.05355ZM1199.61 2.01999C1201.29 2.02895 1202.96 2.04086 1204.61 2.05564L1204.62 1.55566L1204.63 0.555699L1204.63 0.0557193C1202.98 0.0409172 1201.31 0.0289876 1199.62 0.0200227L1199.62 0.520016L1199.61 1.52L1199.61 2.01999ZM705.414 2.02586C707.09 2.03747 708.752 2.05292 710.402 2.07207L710.408 1.5721L710.419 0.572169L710.425 0.0722029C708.772 0.0530167 707.107 0.03754 705.428 0.0259103L705.424 0.525898L705.417 1.52587L705.414 2.02586ZM154.548 2.02731C156.215 2.03952 157.872 2.05574 159.519 2.07583L159.525 1.57587L159.538 0.575946L159.544 0.0759832C157.893 0.0558518 156.233 0.0395975 154.563 0.0273684L154.559 0.527355L154.552 1.52733L154.548 2.02731ZM685.199 2.07737C686.869 2.05661 688.564 2.0399 690.285 2.02739L690.281 1.5274L690.274 0.527427L690.27 0.0274407C688.546 0.0399728 686.848 0.0567209 685.174 0.0775269L685.18 0.577488L685.193 1.57741L685.199 2.07737ZM134.827 2.07748C136.452 2.05684 138.089 2.04021 139.739 2.02773L139.735 1.52774L139.728 0.527768L139.724 0.0277826C138.071 0.0402938 136.43 0.0569611 134.801 0.0776429L134.808 0.577603L134.82 1.57752L134.827 2.07748ZM1169.9 2.17672C1171.52 2.15038 1173.14 2.12684 1174.79 2.1062L1174.78 1.60624L1174.77 0.606319L1174.76 0.106359C1173.12 0.127031 1171.49 0.150605 1169.87 0.176984L1169.88 0.676917L1169.9 1.67678L1169.9 2.17672ZM1209.64 2.11003C1211.33 2.13137 1212.99 2.1557 1214.64 2.1829L1214.65 1.68297L1214.67 0.683108L1214.67 0.183176C1213.02 0.155926 1211.35 0.131565 1209.67 0.110195L1209.66 0.610155L1209.65 1.61007L1209.64 2.11003ZM715.365 2.14134C717.044 2.16873 718.71 2.19994 720.363 2.2348L720.373 1.73491L720.394 0.735129L720.405 0.23524C718.749 0.200313 717.08 0.16905 715.397 0.141604L715.389 0.641538L715.373 1.6414L715.365 2.14134ZM164.468 2.14812C166.136 2.17651 167.795 2.2088 169.446 2.24484L169.457 1.74496L169.479 0.745193L169.49 0.245312C167.836 0.209211 166.173 0.176857 164.502 0.148411L164.493 0.648339L164.476 1.64819L164.468 2.14812ZM125.041 2.25255C126.656 2.21519 128.285 2.18176 129.927 2.15239L129.918 1.65247L129.9 0.65263L129.891 0.15271C128.245 0.182139 126.613 0.215646 124.994 0.25308L125.006 0.752946L125.029 1.75268L125.041 2.25255ZM675.072 2.2584C676.749 2.219 678.452 2.18382 680.181 2.15307L680.173 1.65314L680.155 0.653302L680.146 0.153381C678.413 0.184202 676.706 0.219458 675.025 0.258956L675.036 0.758818L675.06 1.75854L675.072 2.2584ZM1160.08 2.37616C1161.69 2.33696 1163.32 2.30059 1164.97 2.26716L1164.96 1.76726L1164.94 0.767467L1164.93 0.26757C1163.28 0.301055 1161.65 0.337488 1160.03 0.376755L1160.04 0.876607L1160.07 1.87631L1160.08 2.37616ZM1219.67 2.27559C1221.36 2.30987 1223.02 2.34714 1224.67 2.38729L1224.69 1.88744L1224.71 0.887734L1224.72 0.387882C1223.07 0.347669 1221.4 0.31034 1219.71 0.27601L1219.7 0.775906L1219.68 1.7757L1219.67 2.27559ZM725.315 2.35101C726.995 2.39444 728.663 2.44161 730.318 2.49235L730.333 1.99258L730.363 0.993052L730.379 0.493287C728.721 0.442453 727.05 0.395193 725.367 0.351676L725.354 0.851509L725.328 1.85118L725.315 2.35101ZM174.396 2.36457C176.061 2.40878 177.718 2.4567 179.368 2.50817L179.383 2.00842L179.415 1.0089L179.43 0.509145C177.777 0.457576 176.117 0.409565 174.449 0.365278L174.435 0.865102L174.409 1.86475L174.396 2.36457ZM115.239 2.53158C116.859 2.47671 118.493 2.42574 120.143 2.37882L120.128 1.87902L120.1 0.879423L120.086 0.379625C118.433 0.426648 116.795 0.477737 115.171 0.532721L115.188 1.03243L115.222 2.03186L115.239 2.53158ZM664.969 2.5557C666.63 2.49671 668.315 2.44196 670.026 2.39168L670.012 1.89189L669.982 0.892324L669.968 0.39254C668.252 0.442945 666.563 0.497825 664.898 0.556956L664.916 1.05664L664.951 2.05601L664.969 2.5557ZM1150.25 2.65626C1151.87 2.60342 1153.5 2.55342 1155.15 2.50639L1155.13 2.0066L1155.11 1.007L1155.09 0.507206C1153.44 0.55431 1151.8 0.604395 1150.19 0.657331L1150.2 1.15706L1150.24 2.15653L1150.25 2.65626ZM1229.7 2.5194C1231.38 2.56704 1233.05 2.61766 1234.71 2.67113L1234.72 2.17139L1234.76 1.17191L1234.77 0.672169C1233.11 0.61862 1231.44 0.567919 1229.76 0.520196L1229.74 1.02L1229.71 2.0196L1229.7 2.5194ZM735.285 2.65654C736.957 2.71579 738.616 2.77862 740.263 2.84484L740.283 2.34525L740.323 1.34605L740.343 0.846457C738.693 0.780107 737.031 0.717161 735.356 0.657797L735.338 1.15748L735.303 2.15686L735.285 2.65654ZM184.326 2.67418C185.986 2.73348 187.638 2.79627 189.285 2.86237L189.305 2.36277L189.345 1.36357L189.365 0.863977C187.716 0.797764 186.06 0.734864 184.398 0.675451L184.38 1.17513L184.344 2.17449L184.326 2.67418ZM105.464 2.91632C107.076 2.84392 108.703 2.7753 110.346 2.71064L110.326 2.21103L110.287 1.2118L110.267 0.712188C108.621 0.776994 106.989 0.845772 105.374 0.918333L105.397 1.41783L105.442 2.41682L105.464 2.91632ZM654.849 2.97978C656.505 2.89962 658.185 2.82368 659.89 2.75223L659.869 2.25267L659.827 1.25354L659.806 0.753982C658.097 0.825615 656.413 0.901749 654.752 0.982119L654.776 1.48153L654.825 2.48037L654.849 2.97978ZM1140.43 3.02088C1142.05 2.95367 1143.68 2.8893 1145.34 2.8279L1145.32 2.32825L1145.28 1.32893L1145.26 0.829278C1143.6 0.89078 1141.97 0.955271 1140.34 1.02261L1140.36 1.52217L1140.41 2.52131L1140.43 3.02088ZM1239.72 2.84308C1241.41 2.90431 1243.08 2.96846 1244.74 3.03538L1244.76 2.53578L1244.8 1.5366L1244.82 1.037C1243.16 0.96998 1241.48 0.90573 1239.79 0.844396L1239.77 1.34407L1239.74 2.34341L1239.72 2.84308ZM745.245 3.05695C746.908 3.13168 748.559 3.20977 750.198 3.29105L750.223 2.79166L750.272 1.79289L750.297 1.2935C748.655 1.21208 747.001 1.13383 745.335 1.05897L745.312 1.55847L745.268 2.55746L745.245 3.05695ZM194.249 3.07237C195.905 3.1459 197.555 3.22265 199.2 3.30243L199.224 2.80301L199.272 1.80419L199.296 1.30478C197.649 1.22487 195.996 1.148 194.338 1.07434L194.316 1.57385L194.272 2.57286L194.249 3.07237ZM95.6711 3.41218C97.2866 3.32103 98.9197 3.23358 100.57 3.15003L100.545 2.65067L100.495 1.65195L100.469 1.15259C98.8148 1.23633 97.1778 1.32399 95.5585 1.41536L95.5866 1.91456L95.643 2.91297L95.6711 3.41218ZM1130.61 3.473C1132.23 3.39083 1133.87 3.31146 1135.53 3.23504L1135.51 2.73556L1135.47 1.73662L1135.44 1.23715C1133.78 1.31371 1132.13 1.39324 1130.51 1.47555L1130.53 1.97492L1130.58 2.97364L1130.61 3.473ZM644.725 3.53721C646.393 3.43421 648.083 3.33538 649.797 3.24103L649.769 2.74178L649.715 1.7433L649.687 1.24405C647.968 1.33865 646.274 1.43775 644.602 1.54101L644.633 2.04006L644.694 3.03816L644.725 3.53721ZM1249.73 3.24678C1251.42 3.32151 1253.1 3.39905 1254.76 3.47922L1254.78 2.9798L1254.83 1.98096L1254.86 1.48154C1253.19 1.40124 1251.51 1.32359 1249.82 1.24874L1249.8 1.74825L1249.76 2.74727L1249.73 3.24678ZM755.192 3.55011C756.859 3.64042 758.515 3.7339 760.16 3.83033L760.189 3.33119L760.248 2.3329L760.277 1.83376C758.629 1.73715 756.97 1.64351 755.3 1.55304L755.273 2.05231L755.219 3.05084L755.192 3.55011ZM204.166 3.55309C205.822 3.63987 207.473 3.72957 209.121 3.82201L209.149 3.32279L209.205 2.32436L209.233 1.82515C207.583 1.73258 205.929 1.64275 204.271 1.55583L204.244 2.05515L204.192 3.05378L204.166 3.55309ZM85.8964 4.02181C87.5049 3.91178 89.1329 3.80529 90.7802 3.70258L90.7491 3.20355L90.6869 2.20548L90.6558 1.70645C89.0044 1.80941 87.3724 1.91617 85.76 2.02647L85.7941 2.5253L85.8623 3.52297L85.8964 4.02181ZM1259.75 3.72909C1261.43 3.81672 1263.11 3.90697 1264.78 3.99967L1264.8 3.50044L1264.86 2.50198L1264.89 2.00275C1263.22 1.90993 1261.54 1.81955 1259.85 1.73179L1259.83 2.23111L1259.77 3.22976L1259.75 3.72909ZM1120.8 4.01417C1122.43 3.91695 1124.07 3.8224 1125.74 3.73071L1125.71 3.23147L1125.65 2.23299L1125.63 1.73374C1123.96 1.82561 1122.31 1.92034 1120.69 2.01774L1120.71 2.51684L1120.77 3.51506L1120.8 4.01417ZM634.64 4.22665C636.299 4.10242 637.977 3.98201 639.676 3.86581L639.642 3.36697L639.574 2.3693L639.54 1.87047C637.836 1.98698 636.154 2.10769 634.491 2.23223L634.528 2.73084L634.603 3.72805L634.64 4.22665ZM214.077 4.10865C215.733 4.2072 217.385 4.30834 219.035 4.41187L219.067 3.91285L219.129 2.91481L219.161 2.4158C217.508 2.31214 215.854 2.21087 214.196 2.11218L214.167 2.6113L214.107 3.60953L214.077 4.10865ZM765.124 4.13207C766.795 4.2372 768.455 4.34524 770.105 4.45595L770.139 3.95707L770.206 2.95931L770.239 2.46043C768.586 2.34955 766.923 2.24133 765.25 2.13602L765.218 2.63503L765.156 3.63306L765.124 4.13207ZM1269.78 4.28679C1271.45 4.386 1273.12 4.48757 1274.78 4.59132L1274.82 4.09229L1274.88 3.09424L1274.91 2.59521C1273.25 2.49133 1271.57 2.38963 1269.89 2.29028L1269.87 2.78941L1269.81 3.78767L1269.78 4.28679ZM1111.02 4.64399C1112.63 4.53292 1114.26 4.42427 1115.91 4.31827L1115.88 3.8193L1115.81 2.82137L1115.78 2.3224C1114.13 2.4286 1112.5 2.53745 1110.88 2.64872L1110.92 3.14754L1110.99 4.14517L1111.02 4.64399ZM76.1453 4.74959C77.7479 4.61981 79.3724 4.49337 81.0186 4.37055L80.9814 3.87194L80.907 2.87471L80.8698 2.37609C79.2194 2.49923 77.5906 2.626 75.9838 2.75612L76.0242 3.25449L76.1049 4.25123L76.1453 4.74959ZM624.533 5.04564C626.203 4.90054 627.886 4.7588 629.587 4.62087L629.547 4.1225L629.466 3.12577L629.425 2.62741C627.72 2.76568 626.033 2.90773 624.36 3.05315L624.403 3.55128L624.49 4.54752L624.533 5.04564ZM223.988 4.72997C225.642 4.83852 227.294 4.94929 228.945 5.06209L228.979 4.56325L229.047 3.56558L229.081 3.06674C227.428 2.95383 225.775 2.84294 224.12 2.73426L224.087 3.23319L224.021 4.23104L223.988 4.72997ZM775.068 4.79872C776.732 4.91694 778.387 5.0377 780.034 5.16075L780.071 4.66214L780.145 3.66492L780.183 3.16631C778.534 3.04308 776.876 2.92214 775.209 2.80374L775.174 3.30249L775.103 4.29997L775.068 4.79872ZM1279.79 4.91195C1281.47 5.02142 1283.13 5.13296 1284.79 5.24635L1284.82 4.74752L1284.89 3.74984L1284.93 3.251C1283.26 3.13749 1281.6 3.02583 1279.92 2.91622L1279.89 3.41516L1279.83 4.41302L1279.79 4.91195ZM1101.21 5.36314C1102.83 5.23783 1104.46 5.11468 1106.1 4.99392L1106.07 4.49526L1105.99 3.49794L1105.96 2.99928C1104.31 3.12025 1102.68 3.24362 1101.06 3.36914L1101.1 3.86764L1101.18 4.86464L1101.21 5.36314ZM66.3832 5.60467C67.9853 5.45352 69.6124 5.30545 71.2644 5.16081L71.2208 4.66272L71.1336 3.66653L71.09 3.16843C69.4335 3.31346 67.8019 3.46194 66.1954 3.61351L66.2423 4.1113L66.3363 5.10688L66.3832 5.60467ZM233.898 5.40638C235.55 5.52304 237.201 5.64153 238.854 5.76166L238.89 5.26297L238.962 4.2656L238.999 3.76692C237.345 3.6467 235.692 3.52812 234.039 3.41135L234.004 3.91011L233.934 4.90762L233.898 5.40638ZM614.45 5.97364C616.121 5.81211 617.799 5.65325 619.489 5.49751L619.443 4.99962L619.351 4.00384L619.306 3.50595C617.612 3.66199 615.931 3.82114 614.258 3.98293L614.306 4.48061L614.402 5.47596L614.45 5.97364ZM785.007 5.54117C786.669 5.67108 788.322 5.80312 789.968 5.93702L790.008 5.43867L790.089 4.44196L790.13 3.9436C788.482 3.80954 786.827 3.67734 785.163 3.54725L785.124 4.04573L785.046 5.04269L785.007 5.54117ZM1289.8 5.59522C1291.47 5.7135 1293.14 5.8335 1294.81 5.95503L1294.84 5.45635L1294.91 4.45901L1294.95 3.96033C1293.28 3.83871 1291.62 3.71861 1289.94 3.60021L1289.91 4.09897L1289.84 5.09647L1289.8 5.59522ZM1091.42 6.16397C1093.04 6.0251 1094.67 5.88802 1096.32 5.75301L1096.28 5.25467L1096.2 4.25799L1096.16 3.75966C1094.51 3.89489 1092.87 4.03219 1091.25 4.17127L1091.29 4.66944L1091.37 5.6658L1091.42 6.16397ZM56.6381 6.59318C58.2324 6.41986 59.8557 6.24924 61.5078 6.08173L61.4574 5.58428L61.3565 4.58938L61.3061 4.09193C59.6492 4.25992 58.021 4.43105 56.422 4.6049L56.476 5.10197L56.5841 6.09611L56.6381 6.59318ZM243.805 6.12601C245.455 6.24879 247.106 6.373 248.76 6.49845L248.798 5.99988L248.874 5.00274L248.912 4.50417C247.257 4.37867 245.604 4.25439 243.953 4.13153L243.916 4.63015L243.842 5.62739L243.805 6.12601ZM1299.81 6.32512C1301.48 6.44993 1303.14 6.57607 1304.81 6.70336L1304.85 6.20481L1304.93 5.20771L1304.96 4.70916C1303.3 4.58181 1301.63 4.45558 1299.96 4.33069L1299.92 4.8293L1299.85 5.82651L1299.81 6.32512ZM794.931 6.34788C796.593 6.48785 798.25 6.62947 799.9 6.77248L799.943 6.27435L800.03 5.27808L800.073 4.77995C798.421 4.63681 796.763 4.49504 795.098 4.35493L795.057 4.85317L794.973 5.84965L794.931 6.34788ZM604.368 6.9843C606.047 6.81109 607.727 6.63969 609.411 6.47057L609.361 5.97307L609.261 4.97807L609.211 4.48057C607.525 4.64991 605.843 4.8215 604.163 4.99486L604.214 5.49222L604.317 6.48694L604.368 6.9843ZM1081.65 7.03464C1083.26 6.88554 1084.89 6.73772 1086.53 6.59151L1086.48 6.09349L1086.39 5.09744L1086.35 4.59942C1084.71 4.74583 1083.08 4.89383 1081.46 5.04312L1081.51 5.541L1081.6 6.53676L1081.65 7.03464ZM253.712 6.87686C255.359 7.00358 257.009 7.13133 258.663 7.25991L258.702 6.76142L258.78 5.76442L258.818 5.26593C257.164 5.13731 255.513 5.00952 253.866 4.88275L253.827 5.38128L253.75 6.37833L253.712 6.87686ZM1309.82 7.08831C1311.48 7.21718 1313.15 7.34698 1314.82 7.47753L1314.86 6.97905L1314.94 5.98209L1314.98 5.48361C1313.3 5.35304 1311.64 5.22319 1309.97 5.09427L1309.93 5.59278L1309.86 6.5898L1309.82 7.08831ZM46.9187 7.72485C48.503 7.52773 50.1218 7.33274 51.7746 7.14039L51.7168 6.64374L51.6012 5.65044L51.5434 5.1538C49.8854 5.34675 48.2613 5.54237 46.6717 5.74015L46.7335 6.23632L46.8569 7.22867L46.9187 7.72485ZM804.861 7.2077C806.519 7.35481 808.172 7.50305 809.821 7.65214L809.866 7.15417L809.956 6.15824L810.001 5.66027C808.351 5.51109 806.697 5.36275 805.038 5.21553L804.994 5.71357L804.905 6.70966L804.861 7.2077ZM1071.85 7.96579C1073.47 7.80793 1075.1 7.65078 1076.74 7.49468L1076.7 6.99693L1076.6 6.00142L1076.55 5.50367C1074.91 5.65993 1073.28 5.81722 1071.66 5.97521L1071.71 6.47286L1071.8 7.46815L1071.85 7.96579ZM594.289 8.04047C595.973 7.8624 597.652 7.6852 599.328 7.5093L599.275 7.01204L599.171 6.0175L599.119 5.52023C597.442 5.6962 595.763 5.87348 594.079 6.05155L594.131 6.54878L594.236 7.54324L594.289 8.04047ZM263.623 7.64677C265.267 7.77532 266.915 7.9045 268.568 8.03413L268.608 7.53566L268.686 6.53871L268.725 6.04024C267.071 5.91061 265.423 5.78142 263.779 5.65286L263.74 6.15134L263.662 7.14829L263.623 7.64677ZM1319.82 7.86962L1324.83 8.26324L1324.87 7.76477L1324.95 6.76784L1324.99 6.26937L1319.98 5.87576L1319.94 6.37422L1319.86 7.37115L1319.82 7.86962ZM814.788 8.10455C816.444 8.25643 818.098 8.40888 819.75 8.56161L819.796 8.06374L819.888 7.06799L819.934 6.57011C818.282 6.41735 816.628 6.26484 814.97 6.1129L814.925 6.61081L814.833 7.60664L814.788 8.10455ZM37.2118 9.01632C38.7898 8.79213 40.4102 8.56919 42.0728 8.34818L42.0069 7.85254L41.8752 6.86126L41.8093 6.36562C40.1408 6.58741 38.5144 6.81117 36.9305 7.0362L37.0008 7.53123L37.1415 8.52129L37.2118 9.01632ZM273.528 8.42276C275.172 8.55146 276.822 8.68043 278.478 8.80949L278.517 8.311L278.595 7.31402L278.633 6.81553C276.977 6.6865 275.328 6.55755 273.684 6.42886L273.645 6.92733L273.567 7.92428L273.528 8.42276ZM1062.08 8.93324C1063.7 8.77064 1065.33 8.60808 1066.97 8.44592L1066.92 7.94836L1066.82 6.95323L1066.77 6.45567C1065.13 6.61792 1063.5 6.78055 1061.88 6.9432L1061.93 7.44071L1062.03 8.43573L1062.08 8.93324ZM584.202 9.10261C585.895 8.92603 587.577 8.74936 589.248 8.57307L589.196 8.07583L589.091 7.08134L589.039 6.5841C587.367 6.76035 585.687 6.93692 583.994 7.11339L584.046 7.61069L584.15 8.6053L584.202 9.10261ZM1329.83 8.6548C1331.49 8.78491 1333.16 8.91519 1334.84 9.04543L1334.88 8.54693L1334.96 7.54992L1335 7.05141C1333.32 6.92121 1331.65 6.79097 1329.98 6.66088L1329.94 7.15936L1329.87 8.15632L1329.83 8.6548ZM824.711 9.02147L825.93 9.13464L826.001 9.14119C827.226 9.25495 828.451 9.36866 829.676 9.48219L829.722 8.98433L829.814 7.9886L829.86 7.49073C828.594 7.37338 827.328 7.25584 826.061 7.13823L824.896 7.03003L824.85 7.52789L824.757 8.52361L824.711 9.02147ZM283.431 9.1938C285.078 9.32106 286.732 9.44823 288.394 9.57514L288.432 9.07659L288.509 8.07949L288.547 7.58094C286.885 7.45408 285.231 7.32696 283.585 7.19974L283.546 7.69825L283.469 8.69528L283.431 9.1938ZM1052.29 9.91672C1053.92 9.75336 1055.55 9.58929 1057.18 9.42493L1057.13 8.92744L1057.03 7.93247L1056.98 7.43498L1056.09 7.52458L1056.01 7.53263C1054.7 7.66432 1053.4 7.79574 1052.09 7.92673L1052.14 8.42422L1052.24 9.41922L1052.29 9.91672ZM1339.84 9.43039C1341.5 9.55737 1343.17 9.68416 1344.85 9.81059L1344.88 9.312L1344.96 8.31482L1345 7.81623C1343.32 7.68987 1341.65 7.56315 1339.99 7.43622L1339.95 7.93477L1339.88 8.93185L1339.84 9.43039ZM574.111 10.1324C575.806 9.96394 577.484 9.79457 579.146 9.6247L579.096 9.12729L578.994 8.13247L578.943 7.63506C577.282 7.80476 575.607 7.97395 573.913 8.14221L573.963 8.63976L574.062 9.63486L574.111 10.1324ZM27.5312 10.4887C29.0869 10.2355 30.6971 9.98194 32.3612 9.72908L32.2861 9.23475L32.1359 8.2461L32.0608 7.75177C30.3898 8.00568 28.7727 8.26029 27.2099 8.51466L27.2902 9.00816L27.4509 9.99517L27.5312 10.4887ZM834.639 9.94104C836.293 10.0934 837.948 10.2451 839.604 10.396L839.649 9.89802L839.74 8.90214L839.785 8.4042C838.13 8.25345 836.476 8.10177 834.822 7.94947L834.776 8.44736L834.685 9.44314L834.639 9.94104ZM293.338 9.94994C294.987 10.074 296.644 10.1976 298.31 10.3207L298.347 9.82202L298.421 8.82474L298.457 8.3261C296.793 8.20311 295.136 8.07955 293.488 7.95557L293.451 8.45416L293.376 9.45135L293.338 9.94994ZM1349.86 10.1843C1351.51 10.3063 1353.18 10.4277 1354.86 10.5486L1354.89 10.0498L1354.96 9.05243L1355 8.55372C1353.32 8.433 1351.66 8.31163 1350.01 8.18975L1349.97 8.68839L1349.9 9.68568L1349.86 10.1843ZM1042.51 10.889C1044.14 10.7292 1045.77 10.568 1047.4 10.4057L1047.35 9.9082L1047.25 8.91311L1047.2 8.41557C1045.57 8.57775 1043.94 8.73884 1042.31 8.89849L1042.36 9.39612L1042.46 10.3914L1042.51 10.889ZM564.014 11.1001C565.72 10.9431 567.405 10.7846 569.069 10.6249L569.022 10.1272L568.926 9.13178L568.878 8.63406C567.216 8.79354 565.534 8.95179 563.831 9.10848L563.877 9.60638L563.968 10.6022L564.014 11.1001ZM303.252 10.682C304.898 10.801 306.553 10.9194 308.217 11.0369L308.253 10.5381L308.323 9.54063L308.358 9.04187C306.695 8.92445 305.041 8.80617 303.396 8.6872L303.36 9.18589L303.288 10.1833L303.252 10.682ZM844.571 10.8447C846.223 10.9926 847.877 11.1393 849.535 11.2846L849.579 10.7865L849.666 9.79028L849.71 9.29218C848.053 9.14707 846.4 9.00046 844.749 8.85264L844.705 9.35065L844.616 10.3467L844.571 10.8447ZM1359.89 10.9064C1361.54 11.0218 1363.2 11.1365 1364.87 11.2503L1364.91 10.7515L1364.97 9.75378L1365.01 9.25493C1363.34 9.14122 1361.68 9.02662 1360.03 8.91125L1360 9.41003L1359.93 10.4076L1359.89 10.9064ZM17.895 12.177C19.4262 11.8877 21.0343 11.5951 22.7182 11.3006L22.632 10.8081L22.4598 9.82302L22.3736 9.33049C20.6811 9.62647 19.0641 9.92072 17.5237 10.2117L17.6165 10.703L17.8022 11.6856L17.895 12.177ZM1032.72 11.8236C1034.35 11.6719 1035.98 11.5181 1037.61 11.3626L1037.56 10.8648L1037.47 9.86939L1037.42 9.37165C1035.8 9.52706 1034.17 9.68067 1032.53 9.83213L1032.58 10.33L1032.67 11.3257L1032.72 11.8236ZM313.171 11.382C314.814 11.4949 316.467 11.6068 318.13 11.7177L318.163 11.2188L318.23 10.221L318.263 9.72209C316.602 9.61133 314.95 9.49949 313.308 9.38669L313.274 9.88552L313.205 10.8832L313.171 11.382ZM553.905 11.9857C555.605 11.8445 557.281 11.7012 558.935 11.5563L558.892 11.0582L558.805 10.062L558.761 9.56392C557.11 9.70863 555.436 9.85162 553.739 9.9926L553.78 10.4909L553.863 11.4875L553.905 11.9857ZM1369.91 11.5872C1371.56 11.6955 1373.22 11.8028 1374.9 11.909L1374.93 11.41L1374.99 10.412L1375.02 9.91297C1373.35 9.80688 1371.69 9.69969 1370.04 9.59153L1370.01 10.0905L1369.94 11.0883L1369.91 11.5872ZM854.504 11.7141C856.158 11.855 857.816 11.9941 859.479 12.1313L859.52 11.6329L859.603 10.6363L859.644 10.138C857.982 10.0011 856.326 9.86205 854.674 9.72128L854.632 10.2195L854.547 11.2159L854.504 11.7141ZM323.095 12.0433C324.736 12.1491 326.387 12.2537 328.048 12.357L328.079 11.858L328.141 10.8599L328.172 10.3608C326.512 10.2576 324.863 10.1531 323.224 10.0474L323.192 10.5464L323.128 11.5443L323.095 12.0433ZM1379.93 12.2219C1381.58 12.3223 1383.24 12.4216 1384.92 12.5196L1384.95 12.0204L1385.01 11.0221L1385.04 10.523C1383.36 10.4251 1381.7 10.3259 1380.05 10.2256L1380.02 10.7246L1379.96 11.7228L1379.93 12.2219ZM1022.91 12.6972C1024.55 12.5573 1026.19 12.4146 1027.82 12.2694L1027.77 11.7714L1027.68 10.7754L1027.64 10.2773C1026.01 10.4223 1024.38 10.5647 1022.74 10.7044L1022.78 11.2026L1022.87 12.199L1022.91 12.6972ZM543.766 12.7792C545.487 12.6528 547.183 12.5241 548.854 12.3933L548.815 11.8948L548.737 10.8979L548.697 10.3994C547.03 10.53 545.338 10.6584 543.62 10.7846L543.656 11.2832L543.73 12.2805L543.766 12.7792ZM864.444 12.5329C866.096 12.6637 867.753 12.7924 869.417 12.9185L869.455 12.4199L869.53 11.4228L869.568 10.9242C867.906 10.7983 866.251 10.6698 864.603 10.5391L864.563 11.0375L864.484 12.0344L864.444 12.5329ZM333.023 12.6605C334.662 12.7584 336.311 12.855 337.971 12.9502L337.999 12.451L338.056 11.4526L338.085 10.9535C336.427 10.8584 334.779 10.7619 333.143 10.664L333.113 11.1631L333.053 12.1614L333.023 12.6605ZM1389.96 12.8071C1391.61 12.8991 1393.27 12.9898 1394.95 13.0791L1394.98 12.5798L1395.03 11.5813L1395.06 11.082C1393.38 10.9927 1391.71 10.9021 1390.07 10.8102L1390.04 11.3094L1389.98 12.3078L1389.96 12.8071ZM1013.11 13.4865C1014.76 13.3619 1016.39 13.234 1018.01 13.1031L1017.97 12.6047L1017.89 11.6079L1017.85 11.1095C1016.23 11.2402 1014.6 11.3678 1012.96 11.4922L1013 11.9908L1013.07 12.9879L1013.11 13.4865ZM533.668 13.4713C535.379 13.3624 537.064 13.2509 538.724 13.1371L538.69 12.6383L538.621 11.6406L538.587 11.1418C536.93 11.2553 535.249 11.3666 533.541 11.4754L533.573 11.9744L533.636 12.9723L533.668 13.4713ZM8.33176 14.153C9.79578 13.8194 11.3862 13.4746 13.1009 13.1216L13.0001 12.6319L12.7985 11.6524L12.6977 11.1627C10.9703 11.5183 9.36617 11.866 7.88743 12.203L7.99851 12.6905L8.22068 13.6655L8.33176 14.153ZM342.953 13.2294C344.59 13.319 346.238 13.4071 347.897 13.4937L347.923 12.9943L347.975 11.9957L348.001 11.4964C346.344 11.4099 344.698 11.3219 343.063 11.2324L343.035 11.7316L342.981 12.7301L342.953 13.2294ZM874.402 13.2868C876.05 13.4054 877.705 13.5212 879.368 13.6341L879.402 13.1353L879.47 12.1376L879.504 11.6387C877.843 11.526 876.19 11.4103 874.545 11.292L874.51 11.7907L874.438 12.7881L874.402 13.2868ZM1399.99 13.3406C1401.64 13.4238 1403.3 13.5057 1404.98 13.5861L1405 13.0867L1405.05 12.0878L1405.07 11.5884C1403.4 11.5081 1401.74 11.4263 1400.09 11.3432L1400.07 11.8425L1400.02 12.8412L1399.99 13.3406ZM352.884 13.747C354.521 13.828 356.168 13.9073 357.828 13.9849L357.851 13.4855L357.898 12.4865L357.921 11.9871C356.264 11.9096 354.618 11.8303 352.983 11.7495L352.958 12.2489L352.909 13.2476L352.884 13.747ZM523.54 14.0682C525.238 13.9761 526.91 13.8815 528.558 13.7845L528.529 13.2853L528.47 12.287L528.441 11.7879C526.796 11.8848 525.126 11.9792 523.431 12.0712L523.458 12.5704L523.513 13.5689L523.54 14.0682ZM1410.04 13.8216C1411.68 13.8959 1413.34 13.9688 1415.01 14.0402L1415.03 13.5407L1415.07 12.5416L1415.1 12.042C1413.42 11.9707 1411.77 11.8979 1410.13 11.8237L1410.1 12.3232L1410.06 13.3221L1410.04 13.8216ZM1003.29 14.1784C1004.94 14.0712 1006.57 13.9603 1008.19 13.846L1008.16 13.3472L1008.09 12.3497L1008.05 11.8509C1006.43 11.965 1004.8 12.0757 1003.16 12.1826L1003.19 12.6816L1003.25 13.6794L1003.29 14.1784ZM884.345 13.9611C886.001 14.0662 887.665 14.1682 889.339 14.2669L889.369 13.7677L889.427 12.7695L889.457 12.2703C887.786 12.1719 886.124 12.07 884.472 11.9651L884.44 12.4641L884.377 13.4621L884.345 13.9611ZM362.815 14.2113C364.452 14.2834 366.101 14.3538 367.762 14.4223L367.782 13.9227L367.823 12.9236L367.844 12.424C366.185 12.3555 364.538 12.2853 362.903 12.2133L362.881 12.7128L362.837 13.7118L362.815 14.2113ZM1420.08 14.2497C1421.72 14.3154 1423.38 14.3795 1425.05 14.4421L1425.07 13.9425L1425.1 12.9432L1425.12 12.4435C1423.45 12.381 1421.8 12.3169 1420.16 12.2513L1420.14 12.7509L1420.1 13.7501L1420.08 14.2497ZM513.394 14.5724C515.103 14.495 516.788 14.4151 518.448 14.3326L518.423 13.8332L518.373 12.8345L518.349 12.3351C516.691 12.4174 515.01 12.4972 513.303 12.5744L513.326 13.0739L513.371 14.0729L513.394 14.5724ZM993.461 14.7607C995.117 14.6721 996.758 14.5795 998.383 14.4831L998.354 13.9839L998.295 12.9857L998.265 12.4866C996.643 12.5827 995.007 12.6751 993.354 12.7635L993.381 13.2628L993.434 14.2614L993.461 14.7607ZM894.306 14.5478C895.957 14.6373 897.618 14.7233 899.289 14.8057L899.314 14.3063L899.363 13.3075L899.388 12.8081C897.72 12.7259 896.062 12.64 894.415 12.5508L894.388 13.05L894.333 14.0486L894.306 14.5478ZM372.744 14.6211C374.385 14.6842 376.036 14.7456 377.7 14.805L377.718 14.3053L377.754 13.306L377.771 12.8063C376.11 12.7469 374.46 12.6856 372.821 12.6226L372.802 13.1222L372.764 14.1214L372.744 14.6211ZM1430.1 14.6248C1431.75 14.6825 1433.41 14.7386 1435.1 14.7932L1435.11 14.2934L1435.14 13.294L1435.16 12.7942C1433.48 12.7397 1431.81 12.6836 1430.16 12.626L1430.15 13.1257L1430.11 14.1251L1430.1 14.6248ZM503.243 14.9886C504.961 14.9253 506.654 14.8593 508.324 14.7909L508.303 14.2913L508.262 13.2922L508.242 12.7926C506.575 12.8609 504.885 12.9267 503.17 12.9899L503.188 13.4896L503.225 14.4889L503.243 14.9886ZM1440.11 14.9497C1441.78 14.9997 1443.47 15.0481 1445.17 15.095L1445.18 14.5952L1445.21 13.5955L1445.22 13.0957C1443.52 13.0489 1441.84 13.0005 1440.17 12.9506L1440.16 13.4503L1440.13 14.4499L1440.11 14.9497ZM382.674 14.9758C384.319 15.03 385.976 15.0824 387.645 15.1327L387.66 14.633L387.69 13.6334L387.705 13.1336C386.038 13.0833 384.383 13.0311 382.74 12.9769L382.723 13.4766L382.69 14.4761L382.674 14.9758ZM983.64 15.2281C985.29 15.1593 986.924 15.0862 988.541 15.0093L988.517 14.5098L988.47 13.511L988.446 13.0115C986.832 13.0883 985.203 13.1612 983.556 13.2298L983.577 13.7294L983.619 14.7285L983.64 15.2281ZM904.287 15.0394C905.932 15.1121 907.588 15.1813 909.256 15.2465L909.275 14.7469L909.315 13.7477L909.334 13.2481C907.67 13.1829 906.017 13.114 904.375 13.0413L904.353 13.5408L904.309 14.5399L904.287 15.0394ZM493.097 15.3227C494.817 15.2726 496.514 15.22 498.187 15.1649L498.171 14.6652L498.138 13.6657L498.122 13.166C496.451 13.221 494.756 13.2735 493.038 13.3235L493.053 13.8233L493.082 14.8229L493.097 15.3227ZM1450.14 15.2263C1451.82 15.2685 1453.51 15.3091 1455.21 15.3481L1455.22 14.8482L1455.24 13.8485L1455.26 13.3486C1453.55 13.3097 1451.87 13.2691 1450.19 13.2269L1450.18 13.7267L1450.16 14.7264L1450.14 15.2263ZM392.605 15.2756C394.258 15.321 395.922 15.3643 397.598 15.4057L397.61 14.9059L397.635 13.9062L397.647 13.4063C395.973 13.365 394.311 13.3217 392.66 13.2764L392.646 13.7762L392.619 14.7758L392.605 15.2756ZM1.27665 15.9383C1.97923 15.7361 2.75164 15.5244 3.59327 15.3046L3.46692 14.8208L3.21422 13.8533L3.08786 13.3695C2.23224 13.593 1.44373 13.809 0.723354 14.0164L0.861677 14.4969L1.13832 15.4579L1.27665 15.9383ZM973.793 15.5808C975.449 15.5311 977.086 15.4772 978.707 15.4192L978.689 14.9195L978.653 13.9201L978.635 13.4205C977.019 13.4783 975.385 13.5322 973.733 13.5817L973.748 14.0814L973.778 15.081L973.793 15.5808ZM914.25 15.429C915.901 15.485 917.563 15.5371 919.237 15.5852L919.252 15.0854L919.28 14.0858L919.295 13.586C917.624 13.5381 915.965 13.486 914.318 13.4302L914.301 13.9299L914.267 14.9293L914.25 15.429ZM1460.2 15.4566C1461.85 15.4908 1463.53 15.5235 1465.21 15.5546L1465.22 15.0547L1465.24 14.0549L1465.25 13.555C1463.56 13.5239 1461.89 13.4912 1460.24 13.457L1460.23 13.9569L1460.21 14.9567L1460.2 15.4566ZM482.958 15.5811C484.675 15.5433 486.37 15.5031 488.043 15.4605L488.03 14.9607L488.005 13.961L487.992 13.4612C486.322 13.5037 484.629 13.5439 482.914 13.5816L482.925 14.0814L482.947 15.0812L482.958 15.5811ZM402.54 15.521C404.199 15.5574 405.869 15.5919 407.551 15.6243L407.561 15.1243L407.58 14.1245L407.59 13.6246C405.909 13.5923 404.241 13.5579 402.584 13.5214L402.573 14.0213L402.551 15.0211L402.54 15.521ZM1470.29 15.6427C1471.93 15.6693 1473.58 15.6945 1475.25 15.7182L1475.26 15.2182L1475.27 14.2183L1475.28 13.7184C1473.61 13.6947 1471.96 13.6696 1470.32 13.6429L1470.31 14.1429L1470.3 15.1427L1470.29 15.6427ZM472.825 15.77C474.534 15.7437 476.223 15.7149 477.89 15.6839L477.881 15.184L477.862 14.1841L477.853 13.6842C476.188 13.7152 474.502 13.7439 472.794 13.7703L472.802 14.2702L472.817 15.2701L472.825 15.77ZM412.483 15.7126C414.133 15.7401 415.796 15.7655 417.47 15.7888L417.477 15.2889L417.491 14.289L417.497 13.789C415.825 13.7657 414.165 13.7403 412.516 13.7129L412.507 14.2129L412.491 15.2127L412.483 15.7126ZM963.927 15.82C965.597 15.7889 967.249 15.7535 968.883 15.7138L968.871 15.214L968.847 14.2143L968.835 13.7144C967.205 13.754 965.557 13.7893 963.89 13.8203L963.899 14.3202L963.917 15.32L963.927 15.82ZM924.217 15.7151C925.876 15.754 927.547 15.7888 929.231 15.8194L929.24 15.3195L929.258 14.3197L929.267 13.8197C927.587 13.7892 925.919 13.7544 924.264 13.7156L924.252 14.2155L924.229 15.2152L924.217 15.7151ZM1480.29 15.7846C1481.96 15.8048 1483.64 15.8235 1485.33 15.8406L1485.34 15.3406L1485.35 14.3407L1485.35 13.8407C1483.66 13.8236 1481.98 13.8049 1480.32 13.7847L1480.31 14.2847L1480.3 15.2846L1480.29 15.7846ZM462.69 15.8955C464.388 15.8795 466.065 15.8612 467.722 15.8408L467.716 15.3408L467.704 14.3409L467.698 13.8409C466.042 13.8614 464.367 13.8796 462.672 13.8955L462.676 14.3955L462.686 15.3955L462.69 15.8955ZM422.438 15.8516C424.079 15.8703 425.732 15.8869 427.396 15.9015L427.4 15.4015L427.409 14.4016L427.413 13.9016C425.751 13.887 424.1 13.8704 422.461 13.8518L422.455 14.3517L422.444 15.3517L422.438 15.8516ZM1490.31 15.8862C1491.98 15.8999 1493.67 15.9121 1495.37 15.9228L1495.37 15.4228L1495.38 14.4229L1495.38 13.9229C1493.68 13.9122 1492 13.9 1490.33 13.8863L1490.32 14.3863L1490.31 15.3862L1490.31 15.8862ZM934.194 15.8967C935.849 15.9181 937.516 15.9354 939.197 15.9484L939.201 15.4484L939.208 14.4485L939.212 13.9485C937.535 13.9355 935.871 13.9182 934.22 13.8968L934.214 14.3968L934.201 15.3967L934.194 15.8967ZM954.105 15.9489C955.77 15.9359 957.416 15.9187 959.044 15.8973L959.037 15.3974L959.024 14.3975L959.017 13.8975C957.393 13.9188 955.751 13.936 954.089 13.9489L954.093 14.4489L954.101 15.4489L954.105 15.9489ZM452.543 15.9626C454.226 15.956 455.891 15.9473 457.536 15.9365L457.533 15.4366L457.527 14.4366L457.523 13.9366C455.879 13.9474 454.217 13.956 452.535 13.9626L452.537 14.4626L452.541 15.4626L452.543 15.9626ZM432.412 15.939C434.042 15.9492 435.684 15.9573 437.336 15.9635L437.338 15.4635L437.342 14.4635L437.344 13.9635C435.693 13.9573 434.053 13.9492 432.424 13.9391L432.421 14.4391L432.415 15.439L432.412 15.939ZM1500.39 15.9497C1502.04 15.957 1503.7 15.9629 1505.38 15.9673L1505.38 15.4673L1505.38 14.4673L1505.38 13.9674C1503.71 13.9629 1502.05 13.957 1500.4 13.9497L1500.4 14.4497L1500.39 15.4497L1500.39 15.9497ZM944.178 15.9741C945.015 15.9763 945.855 15.9774 946.698 15.9774C947.535 15.9774 948.367 15.9763 949.195 15.9742L949.194 15.4742L949.191 14.4742L949.19 13.9742C948.364 13.9763 947.533 13.9774 946.698 13.9774C945.857 13.9774 945.018 13.9763 944.183 13.9741L944.182 14.4741L944.179 15.4741L944.178 15.9741ZM444.847 15.9774C445.716 15.9774 446.581 15.9768 447.441 15.9757L447.44 15.4757L447.439 14.4757L447.438 13.9757C446.579 13.9768 445.715 13.9774 444.847 13.9774C444.005 13.9774 443.165 13.9768 442.329 13.9758L442.328 14.4758L442.327 15.4758L442.326 15.9758C443.164 15.9768 444.004 15.9774 444.847 15.9774ZM1510.44 15.9762C1511.29 15.977 1512.14 15.9774 1513 15.9774V16C1513.72 16 1514.55 15.9791 1515.46 15.9396L1515.44 15.44L1515.4 14.4409L1515.38 13.9414C1514.48 13.9801 1513.69 14 1513 14V13.9774C1512.14 13.9774 1511.29 13.977 1510.44 13.9762L1510.44 14.4762L1510.44 15.4762L1510.44 15.9762ZM1696.64 2.00455C1697.46 2.00153 1698.27 2 1699.09 2C1699.92 2 1700.76 2.00103 1701.59 2.00307L1701.59 1.50307L1701.59 0.503075L1701.59 0.00307637C1700.76 0.00103134 1699.93 0 1699.09 0C1698.27 0 1697.45 0.0015313 1696.63 0.00456172L1696.64 0.504558L1696.64 1.50455L1696.64 2.00455ZM2247.34 2.00308C2248.19 2.00103 2249.05 2 2249.92 2C2250.76 2 2251.6 2.00097 2252.44 2.00291L2252.44 1.50291L2252.44 0.50291L2252.44 0.00291151C2251.61 0.000975907 2250.76 0 2249.92 0C2249.05 0 2248.19 0.00103402 2247.33 0.00308442L2247.33 0.503083L2247.34 1.50308L2247.34 2.00308ZM2741.54 2.00216C2742.37 2.00072 2743.2 2 2744.04 2C2744.89 2 2745.74 2.00075 2746.59 2.00224L2746.59 1.50224L2746.59 0.502246L2746.59 0.0022468C2745.74 0.000752628 2744.89 0 2744.04 0C2743.2 0 2742.37 0.000724137 2741.54 0.00216198L2741.54 0.502161L2741.54 1.50216L2741.54 2.00216ZM2731.72 2.05355C2733.34 2.03933 2734.97 2.02786 2736.62 2.01924L2736.61 1.51925L2736.61 0.519265L2736.61 0.0192716C2734.96 0.0278999 2733.32 0.0393824 2731.71 0.0536322L2731.71 0.553613L2731.72 1.55357L2731.72 2.05355ZM2751.61 2.01999C2753.29 2.02895 2754.96 2.04086 2756.61 2.05564L2756.62 1.55566L2756.63 0.555699L2756.63 0.0557193C2754.98 0.0409172 2753.31 0.0289876 2751.62 0.0200227L2751.62 0.520016L2751.61 1.52L2751.61 2.01999ZM2257.41 2.02586C2259.09 2.03747 2260.75 2.05292 2262.4 2.07207L2262.41 1.5721L2262.42 0.572169L2262.43 0.0722029C2260.77 0.0530167 2259.11 0.03754 2257.43 0.0259103L2257.42 0.525898L2257.42 1.52587L2257.41 2.02586ZM1706.55 2.02731C1708.21 2.03952 1709.87 2.05574 1711.52 2.07583L1711.53 1.57587L1711.54 0.575946L1711.54 0.0759832C1709.89 0.0558518 1708.23 0.0395975 1706.56 0.0273684L1706.56 0.527355L1706.55 1.52733L1706.55 2.02731ZM2237.2 2.07737C2238.87 2.05661 2240.56 2.0399 2242.28 2.02739L2242.28 1.5274L2242.27 0.527427L2242.27 0.0274407C2240.55 0.0399728 2238.85 0.0567209 2237.17 0.0775269L2237.18 0.577488L2237.19 1.57741L2237.2 2.07737ZM1686.83 2.10989C1688.46 2.08123 1690.1 2.05797 1691.73 2.04036L1691.72 1.54039L1691.71 0.540444L1691.71 0.0404729C1690.07 0.0581402 1688.43 0.0814644 1686.79 0.110194L1686.8 0.610118L1686.82 1.60996L1686.83 2.10989ZM2721.9 2.17672C2723.52 2.15038 2725.14 2.12684 2726.79 2.1062L2726.78 1.60624L2726.77 0.606319L2726.76 0.106359C2725.12 0.127031 2723.49 0.150605 2721.87 0.176984L2721.88 0.676917L2721.9 1.67678L2721.9 2.17672ZM2761.64 2.11003C2763.33 2.13137 2764.99 2.1557 2766.64 2.1829L2766.65 1.68297L2766.67 0.683108L2766.68 0.183176C2765.02 0.155926 2763.35 0.131565 2761.67 0.110195L2761.66 0.610155L2761.65 1.61007L2761.64 2.11003ZM2267.36 2.14134C2269.04 2.16873 2270.71 2.19994 2272.36 2.2348L2272.37 1.73491L2272.39 0.735129L2272.41 0.23524C2270.75 0.200313 2269.08 0.16905 2267.4 0.141604L2267.39 0.641538L2267.37 1.6414L2267.36 2.14134ZM1716.47 2.14812C1718.14 2.17651 1719.8 2.2088 1721.45 2.24484L1721.46 1.74496L1721.48 0.745193L1721.49 0.245312C1719.84 0.209211 1718.17 0.176857 1716.5 0.148411L1716.49 0.648339L1716.48 1.64819L1716.47 2.14812ZM2227.07 2.2584C2228.75 2.219 2230.45 2.18382 2232.18 2.15307L2232.17 1.65314L2232.15 0.653302L2232.15 0.153381C2230.41 0.184202 2228.71 0.219458 2227.02 0.258956L2227.04 0.758818L2227.06 1.75854L2227.07 2.2584ZM1677.01 2.34338C1678.65 2.29449 1680.29 2.25043 1681.92 2.21147L1681.91 1.71162L1681.88 0.711901L1681.87 0.212043C1680.23 0.251101 1678.59 0.29526 1676.95 0.344274L1676.97 0.844052L1677 1.84361L1677.01 2.34338ZM2712.08 2.37616C2713.69 2.33696 2715.32 2.30059 2716.97 2.26716L2716.96 1.76726L2716.94 0.767467L2716.93 0.26757C2715.28 0.301055 2713.65 0.337488 2712.03 0.376755L2712.04 0.876607L2712.07 1.87631L2712.08 2.37616ZM2771.67 2.27559C2773.36 2.30987 2775.02 2.34714 2776.67 2.38729L2776.69 1.88744L2776.71 0.887734L2776.72 0.387882C2775.07 0.347669 2773.4 0.31034 2771.71 0.27601L2771.7 0.775906L2771.68 1.7757L2771.67 2.27559ZM2277.32 2.35101C2279 2.39444 2280.66 2.44161 2282.32 2.49235L2282.33 1.99258L2282.36 0.993052L2282.38 0.493287C2280.72 0.442453 2279.05 0.395193 2277.37 0.351676L2277.35 0.851509L2277.33 1.85118L2277.32 2.35101ZM1726.4 2.36457C1728.06 2.40878 1729.72 2.4567 1731.37 2.50817L1731.38 2.00842L1731.41 1.0089L1731.43 0.509145C1729.78 0.457576 1728.12 0.409565 1726.45 0.365278L1726.44 0.865102L1726.41 1.86475L1726.4 2.36457ZM2216.97 2.5557C2218.63 2.49671 2220.31 2.44196 2222.03 2.39168L2222.01 1.89189L2221.98 0.892324L2221.97 0.39254C2220.25 0.442945 2218.56 0.497825 2216.9 0.556956L2216.92 1.05664L2216.95 2.05601L2216.97 2.5557ZM1667.2 2.69154C1668.84 2.62456 1670.47 2.5619 1672.11 2.50381L1672.09 2.00413L1672.05 1.00476L1672.04 0.505073C1670.4 0.563296 1668.76 0.626092 1667.12 0.693217L1667.14 1.1928L1667.18 2.19196L1667.2 2.69154ZM2702.25 2.65626C2703.87 2.60342 2705.5 2.55342 2707.15 2.50639L2707.13 2.0066L2707.11 1.007L2707.09 0.507206C2705.44 0.55431 2703.8 0.604395 2702.19 0.657331L2702.2 1.15706L2702.24 2.15653L2702.25 2.65626ZM2781.7 2.5194C2783.38 2.56704 2785.05 2.61766 2786.71 2.67113L2786.72 2.17139L2786.76 1.17191L2786.77 0.672169C2785.11 0.61862 2783.44 0.567919 2781.76 0.520196L2781.74 1.02L2781.71 2.0196L2781.7 2.5194ZM2287.29 2.65654C2288.96 2.71579 2290.62 2.77862 2292.26 2.84484L2292.28 2.34525L2292.32 1.34605L2292.34 0.846457C2290.69 0.780107 2289.03 0.717161 2287.36 0.657797L2287.34 1.15748L2287.3 2.15686L2287.29 2.65654ZM1736.33 2.67418C1737.99 2.73348 1739.64 2.79627 1741.28 2.86237L1741.3 2.36277L1741.34 1.36357L1741.36 0.863977C1739.72 0.797764 1738.06 0.734864 1736.4 0.675451L1736.38 1.17513L1736.34 2.17449L1736.33 2.67418ZM2206.85 2.97978C2208.5 2.89962 2210.18 2.82368 2211.89 2.75223L2211.87 2.25267L2211.83 1.25354L2211.81 0.753982C2210.1 0.825615 2208.41 0.901749 2206.75 0.982119L2206.78 1.48153L2206.82 2.48037L2206.85 2.97978ZM2692.43 3.02088C2694.05 2.95367 2695.68 2.8893 2697.34 2.8279L2697.32 2.32825L2697.28 1.32893L2697.26 0.829278C2695.6 0.89078 2693.97 0.955271 2692.34 1.02261L2692.36 1.52217L2692.41 2.52131L2692.43 3.02088ZM2791.72 2.84308C2793.41 2.90431 2795.08 2.96846 2796.74 3.03538L2796.76 2.53578L2796.8 1.5366L2796.82 1.037C2795.16 0.96998 2793.48 0.90573 2791.79 0.844396L2791.77 1.34407L2791.74 2.34341L2791.72 2.84308ZM1657.39 3.1432C1659.03 3.0599 1660.66 2.98044 1662.3 2.90506L1662.27 2.40559L1662.23 1.40665L1662.21 0.907181C1660.57 0.982715 1658.93 1.06233 1657.29 1.1458L1657.32 1.64515L1657.37 2.64385L1657.39 3.1432ZM2297.25 3.05695C2298.91 3.13168 2300.56 3.20977 2302.2 3.29105L2302.22 2.79166L2302.27 1.79289L2302.3 1.2935C2300.65 1.21208 2299 1.13383 2297.33 1.05897L2297.31 1.55847L2297.27 2.55746L2297.25 3.05695ZM1746.25 3.07237C1747.9 3.1459 1749.55 3.22265 1751.2 3.30243L1751.22 2.80301L1751.27 1.80419L1751.3 1.30478C1749.65 1.22487 1748 1.148 1746.34 1.07434L1746.32 1.57385L1746.27 2.57286L1746.25 3.07237ZM2682.61 3.473C2684.23 3.39083 2685.87 3.31146 2687.53 3.23504L2687.51 2.73556L2687.47 1.73662L2687.44 1.23715C2685.78 1.31371 2684.13 1.39324 2682.51 1.47555L2682.53 1.97492L2682.58 2.97364L2682.61 3.473ZM2196.72 3.53721C2198.39 3.43421 2200.08 3.33538 2201.8 3.24103L2201.77 2.74178L2201.71 1.7433L2201.69 1.24405C2199.97 1.33865 2198.27 1.43775 2196.6 1.54101L2196.63 2.04006L2196.69 3.03816L2196.72 3.53721ZM2801.73 3.24678C2803.42 3.32151 2805.1 3.39905 2806.76 3.47922L2806.78 2.9798L2806.83 1.98096L2806.86 1.48154C2805.19 1.40124 2803.51 1.32359 2801.82 1.24874L2801.8 1.74825L2801.76 2.74727L2801.73 3.24678ZM1647.59 3.68827C1649.22 3.5903 1650.86 3.49569 1652.49 3.4047L1652.46 2.90547L1652.41 1.90701L1652.38 1.40779C1650.74 1.49895 1649.11 1.59372 1647.47 1.69187L1647.5 2.19097L1647.56 3.18917L1647.59 3.68827ZM2307.19 3.55011C2308.86 3.64042 2310.52 3.7339 2312.16 3.83033L2312.19 3.33119L2312.25 2.3329L2312.28 1.83376C2310.63 1.73715 2308.97 1.64351 2307.3 1.55304L2307.27 2.05231L2307.22 3.05084L2307.19 3.55011ZM1756.17 3.55309C1757.82 3.63987 1759.47 3.72957 1761.12 3.82201L1761.15 3.32279L1761.21 2.32436L1761.23 1.82515C1759.58 1.73258 1757.93 1.64275 1756.27 1.55583L1756.24 2.05515L1756.19 3.05378L1756.17 3.55309ZM2811.75 3.72909C2813.43 3.81672 2815.11 3.90697 2816.78 3.99967L2816.8 3.50044L2816.86 2.50198L2816.89 2.00275C2815.22 1.90993 2813.54 1.81955 2811.85 1.73179L2811.83 2.23111L2811.77 3.22976L2811.75 3.72909ZM2672.8 4.01417C2674.43 3.91695 2676.07 3.8224 2677.74 3.73071L2677.71 3.23147L2677.65 2.23299L2677.63 1.73374C2675.96 1.82561 2674.31 1.92034 2672.69 2.01774L2672.72 2.51684L2672.77 3.51506L2672.8 4.01417ZM2186.64 4.22665C2188.3 4.10242 2189.98 3.98201 2191.68 3.86581L2191.64 3.36697L2191.57 2.3693L2191.54 1.87047C2189.84 1.98698 2188.15 2.10769 2186.49 2.23223L2186.53 2.73084L2186.6 3.72805L2186.64 4.22665ZM1637.79 4.31855C1639.42 4.20717 1641.05 4.09871 1642.69 3.99343L1642.66 3.49446L1642.59 2.49652L1642.56 1.99755C1640.92 2.10302 1639.28 2.21165 1637.65 2.32321L1637.69 2.82204L1637.75 3.81971L1637.79 4.31855ZM1766.08 4.10865C1767.73 4.2072 1769.39 4.30834 1771.04 4.41187L1771.07 3.91285L1771.13 2.91481L1771.16 2.4158C1769.51 2.31214 1767.85 2.21087 1766.2 2.11218L1766.17 2.6113L1766.11 3.60953L1766.08 4.10865ZM2317.12 4.13207C2318.79 4.2372 2320.45 4.34524 2322.11 4.45595L2322.14 3.95707L2322.21 2.95931L2322.24 2.46043C2320.59 2.34955 2318.92 2.24133 2317.25 2.13602L2317.22 2.63503L2317.16 3.63306L2317.12 4.13207ZM2821.78 4.28679C2823.45 4.386 2825.12 4.48757 2826.78 4.59132L2826.82 4.09229L2826.88 3.09424L2826.91 2.59521C2825.25 2.49133 2823.57 2.38963 2821.89 2.29028L2821.87 2.78941L2821.81 3.78767L2821.78 4.28679ZM2663.02 4.64399C2664.63 4.53292 2666.26 4.42427 2667.91 4.31827L2667.88 3.8193L2667.81 2.82137L2667.78 2.3224C2666.13 2.4286 2664.5 2.53745 2662.88 2.64872L2662.92 3.14754L2662.99 4.14517L2663.02 4.64399ZM2176.53 5.04564C2178.2 4.90054 2179.89 4.7588 2181.59 4.62087L2181.55 4.1225L2181.47 3.12577L2181.43 2.62741C2179.72 2.76568 2178.03 2.90773 2176.36 3.05315L2176.4 3.55128L2176.49 4.54752L2176.53 5.04564ZM1627.99 5.02584C1629.62 4.90221 1631.26 4.78105 1632.9 4.66263L1632.86 4.16393L1632.79 3.16652L1632.75 2.66782C1631.11 2.78643 1629.47 2.90777 1627.84 3.03158L1627.88 3.53015L1627.95 4.52728L1627.99 5.02584ZM1775.99 4.72997C1777.64 4.83852 1779.29 4.94929 1780.94 5.06209L1780.98 4.56325L1781.05 3.56558L1781.08 3.06674C1779.43 2.95383 1777.77 2.84294 1776.12 2.73426L1776.09 3.23319L1776.02 4.23104L1775.99 4.72997ZM2327.07 4.79872C2328.73 4.91694 2330.39 5.0377 2332.03 5.16075L2332.07 4.66214L2332.15 3.66492L2332.18 3.16631C2330.53 3.04308 2328.88 2.92214 2327.21 2.80374L2327.17 3.30249L2327.1 4.29997L2327.07 4.79872ZM2831.79 4.91195C2833.47 5.02142 2835.13 5.13296 2836.79 5.24635L2836.82 4.74752L2836.89 3.74984L2836.93 3.251C2835.26 3.13749 2833.6 3.02583 2831.93 2.91622L2831.89 3.41516L2831.83 4.41302L2831.79 4.91195ZM2653.21 5.36314C2654.83 5.23783 2656.46 5.11468 2658.1 4.99392L2658.07 4.49526L2657.99 3.49794L2657.96 2.99928C2656.31 3.12025 2654.68 3.24362 2653.06 3.36914L2653.1 3.86764L2653.18 4.86464L2653.21 5.36314ZM1785.9 5.40638C1787.55 5.52304 1789.2 5.64153 1790.85 5.76166L1790.89 5.26297L1790.96 4.2656L1791 3.76692C1789.34 3.6467 1787.69 3.52812 1786.04 3.41135L1786 3.91011L1785.93 4.90762L1785.9 5.40638ZM1618.21 5.80227C1619.83 5.66811 1621.46 5.53594 1623.1 5.40605L1623.06 4.90762L1622.98 3.91075L1622.94 3.41232C1621.3 3.5424 1619.67 3.67474 1618.05 3.80908L1618.09 4.30738L1618.17 5.30397L1618.21 5.80227ZM2166.45 5.97364C2168.12 5.81211 2169.8 5.65325 2171.49 5.49751L2171.44 4.99962L2171.35 4.00384L2171.31 3.50595C2169.61 3.66199 2167.93 3.82114 2166.26 3.98293L2166.31 4.48061L2166.4 5.47596L2166.45 5.97364ZM2337.01 5.54117C2338.67 5.67108 2340.32 5.80312 2341.97 5.93702L2342.01 5.43867L2342.09 4.44196L2342.13 3.9436C2340.48 3.80954 2338.83 3.67734 2337.16 3.54725L2337.12 4.04573L2337.05 5.04269L2337.01 5.54117ZM2841.8 5.59522C2843.47 5.7135 2845.14 5.8335 2846.81 5.95503L2846.84 5.45635L2846.91 4.45901L2846.95 3.96033C2845.28 3.83871 2843.62 3.71861 2841.94 3.60021L2841.91 4.09897L2841.84 5.09647L2841.8 5.59522ZM2643.42 6.16397C2645.04 6.0251 2646.67 5.88802 2648.32 5.75301L2648.28 5.25467L2648.2 4.25799L2648.16 3.75966C2646.51 3.89489 2644.87 4.03219 2643.25 4.17127L2643.29 4.66944L2643.37 5.6658L2643.42 6.16397ZM1795.81 6.12601C1797.45 6.24879 1799.11 6.373 1800.76 6.49845L1800.8 5.99988L1800.87 5.00274L1800.91 4.50417C1799.26 4.37867 1797.6 4.25439 1795.95 4.13153L1795.92 4.63015L1795.84 5.62739L1795.81 6.12601ZM1608.41 6.64364C1610.04 6.49942 1611.67 6.35671 1613.31 6.21579L1613.26 5.71763L1613.18 4.7213L1613.14 4.22313C1611.49 4.36422 1609.86 4.50711 1608.24 4.6515L1608.28 5.14954L1608.37 6.14561L1608.41 6.64364ZM2851.81 6.32512C2853.48 6.44993 2855.14 6.57607 2856.81 6.70336L2856.85 6.20481L2856.93 5.20771L2856.96 4.70916C2855.3 4.58181 2853.63 4.45558 2851.96 4.33069L2851.92 4.8293L2851.85 5.82651L2851.81 6.32512ZM2346.93 6.34788C2348.59 6.48785 2350.25 6.62947 2351.9 6.77248L2351.94 6.27435L2352.03 5.27808L2352.07 4.77995C2350.42 4.63681 2348.76 4.49504 2347.1 4.35493L2347.06 4.85317L2346.97 5.84965L2346.93 6.34788ZM2156.37 6.9843C2158.05 6.81109 2159.73 6.63969 2161.41 6.47057L2161.36 5.97307L2161.26 4.97807L2161.21 4.48057C2159.52 4.64991 2157.84 4.8215 2156.16 4.99486L2156.21 5.49222L2156.32 6.48694L2156.37 6.9843ZM2633.65 7.03464C2635.26 6.88554 2636.89 6.73772 2638.53 6.59151L2638.48 6.09349L2638.39 5.09744L2638.35 4.59942C2636.71 4.74583 2635.08 4.89383 2633.46 5.04312L2633.51 5.541L2633.6 6.53676L2633.65 7.03464ZM1805.71 6.87686C1807.36 7.00358 1809.01 7.13133 1810.66 7.25991L1810.7 6.76142L1810.78 5.76442L1810.82 5.26593C1809.16 5.13731 1807.51 5.00952 1805.87 4.88275L1805.83 5.38128L1805.75 6.37833L1805.71 6.87686ZM1598.64 7.54083C1600.26 7.38769 1601.89 7.23553 1603.53 7.08466L1603.49 6.58675L1603.4 5.59093L1603.35 5.09303C1601.7 5.24407 1600.07 5.39639 1598.45 5.54969L1598.49 6.04747L1598.59 7.04304L1598.64 7.54083ZM2861.82 7.08831C2863.48 7.21718 2865.15 7.34698 2866.82 7.47753L2866.86 6.97905L2866.94 5.98209L2866.98 5.48361C2865.3 5.35304 2863.64 5.22319 2861.97 5.09427L2861.93 5.59278L2861.86 6.5898L2861.82 7.08831ZM2356.86 7.2077C2358.52 7.35481 2360.17 7.50305 2361.82 7.65214L2361.87 7.15417L2361.96 6.15824L2362 5.66027C2360.35 5.51109 2358.7 5.36275 2357.04 5.21553L2356.99 5.71357L2356.91 6.70966L2356.86 7.2077ZM2623.85 7.96579C2625.47 7.80793 2627.1 7.65078 2628.74 7.49468L2628.7 6.99693L2628.6 6.00142L2628.55 5.50367C2626.91 5.65993 2625.28 5.81722 2623.66 5.97521L2623.71 6.47286L2623.8 7.46815L2623.85 7.96579ZM2146.29 8.04047C2147.97 7.8624 2149.65 7.6852 2151.33 7.5093L2151.28 7.01204L2151.17 6.0175L2151.12 5.52023C2149.44 5.6962 2147.76 5.87348 2146.08 6.05155L2146.13 6.54878L2146.24 7.54324L2146.29 8.04047ZM1815.62 7.64677L1820.57 8.03413L1820.61 7.53566L1820.69 6.53871L1820.72 6.04024L1815.78 5.65286L1815.74 6.15134L1815.66 7.14829L1815.62 7.64677ZM2871.82 7.86962L2876.83 8.26324L2876.87 7.76477L2876.95 6.76784L2876.99 6.26937L2871.98 5.87576L2871.94 6.37422L2871.86 7.37115L2871.82 7.86962ZM1588.86 8.48893C1590.47 8.32864 1592.1 8.16872 1593.74 8.00949L1593.69 7.51183L1593.6 6.5165L1593.55 6.01883C1591.9 6.17822 1590.27 6.33829 1588.66 6.49872L1588.71 6.99627L1588.81 7.99138L1588.86 8.48893ZM2366.79 8.10455C2368.44 8.25643 2370.1 8.40888 2371.75 8.56161L2371.8 8.06374L2371.89 7.06799L2371.93 6.57011C2370.28 6.41735 2368.63 6.26484 2366.97 6.1129L2366.92 6.61081L2366.83 7.60664L2366.79 8.10455ZM1825.53 8.42276C1827.17 8.55146 1828.82 8.68043 1830.48 8.80949L1830.52 8.311L1830.59 7.31402L1830.63 6.81553C1828.98 6.6865 1827.33 6.55755 1825.68 6.42886L1825.64 6.92733L1825.57 7.92428L1825.53 8.42276ZM2614.08 8.93324C2615.7 8.77064 2617.33 8.60808 2618.97 8.44592L2618.92 7.94836L2618.82 6.95323L2618.77 6.45567C2617.13 6.61792 2615.5 6.78055 2613.88 6.9432L2613.93 7.44071L2614.03 8.43573L2614.08 8.93324ZM2136.2 9.10261C2137.9 8.92603 2139.58 8.74936 2141.25 8.57307L2141.2 8.07583L2141.09 7.08134L2141.04 6.5841C2139.37 6.76035 2137.69 6.93692 2135.99 7.11339L2136.05 7.61069L2136.15 8.6053L2136.2 9.10261ZM2881.83 8.6548C2883.49 8.78491 2885.16 8.91519 2886.84 9.04543L2886.88 8.54693L2886.96 7.54992L2887 7.05141C2885.32 6.92121 2883.65 6.79097 2881.98 6.66088L2881.94 7.15936L2881.87 8.15632L2881.83 8.6548ZM1579.08 9.48097C1580.7 9.31372 1582.33 9.1461 1583.98 8.9785L1583.93 8.48106L1583.83 7.48617L1583.78 6.98872C1582.13 7.15647 1580.49 7.32422 1578.88 7.49159L1578.93 7.98894L1579.03 8.98362L1579.08 9.48097ZM2376.71 9.02147L2377.93 9.13464L2381.68 9.48219L2381.72 8.98433L2381.81 7.9886L2381.86 7.49073L2376.9 7.03003L2376.85 7.52789L2376.76 8.52361L2376.71 9.02147ZM1835.43 9.1938C1837.08 9.32106 1838.73 9.44823 1840.39 9.57514L1840.43 9.07659L1840.51 8.07949L1840.55 7.58094C1838.89 7.45408 1837.23 7.32696 1835.58 7.19974L1835.55 7.69825L1835.47 8.69528L1835.43 9.1938ZM2604.29 9.91672L2608.38 9.50603L2609.18 9.42493L2609.13 8.92744L2609.03 7.93247L2608.98 7.43498L2608.09 7.52458L2604.09 7.92673L2604.14 8.42422L2604.24 9.41922L2604.29 9.91672ZM2891.84 9.43039C2893.5 9.55737 2895.17 9.68416 2896.85 9.81059L2896.88 9.312L2896.96 8.31482L2897 7.81623C2895.32 7.68987 2893.65 7.56315 2891.99 7.43622L2891.95 7.93477L2891.88 8.93185L2891.84 9.43039ZM2126.11 10.1324C2127.81 9.96394 2129.48 9.79457 2131.15 9.6247L2131.1 9.12729L2130.99 8.13247L2130.94 7.63506C2129.28 7.80476 2127.61 7.97395 2125.91 8.14221L2125.96 8.63976L2126.06 9.63486L2126.11 10.1324ZM2386.64 9.94104C2388.29 10.0934 2389.95 10.2451 2391.6 10.396L2391.65 9.89802L2391.74 8.90214L2391.79 8.4042C2390.13 8.25345 2388.48 8.10177 2386.82 7.94947L2386.78 8.44736L2386.68 9.44314L2386.64 9.94104ZM1845.34 9.94994C1846.99 10.074 1848.64 10.1976 1850.31 10.3207L1850.35 9.82202L1850.42 8.82474L1850.46 8.3261C1848.79 8.20311 1847.14 8.07955 1845.49 7.95557L1845.45 8.45416L1845.38 9.45135L1845.34 9.94994ZM1569.31 10.5096C1570.91 10.3381 1572.54 10.1653 1574.19 9.99172L1574.14 9.49447L1574.03 8.49996L1573.98 8.00271C1572.33 8.17645 1570.7 8.34934 1569.09 8.52096L1569.15 9.01813L1569.25 10.0125L1569.31 10.5096ZM2901.86 10.1843C2903.51 10.3063 2905.18 10.4277 2906.86 10.5486L2906.89 10.0498L2906.96 9.05243L2907 8.55372C2905.32 8.433 2903.66 8.31163 2902.01 8.18975L2901.97 8.68839L2901.9 9.68568L2901.86 10.1843ZM2594.51 10.889C2596.14 10.7292 2597.77 10.568 2599.4 10.4057L2599.35 9.9082L2599.25 8.91311L2599.2 8.41557C2597.57 8.57775 2595.94 8.73884 2594.31 8.89849L2594.36 9.39612L2594.46 10.3914L2594.51 10.889ZM2116.01 11.1001C2117.72 10.9431 2119.4 10.7846 2121.07 10.6249L2121.02 10.1272L2120.93 9.13178L2120.88 8.63406C2119.22 8.79354 2117.53 8.95179 2115.83 9.10848L2115.88 9.60638L2115.97 10.6022L2116.01 11.1001ZM1855.25 10.682C1856.9 10.801 1858.55 10.9194 1860.22 11.0369L1860.25 10.5381L1860.32 9.54063L1860.36 9.04187C1858.69 8.92445 1857.04 8.80617 1855.4 8.6872L1855.36 9.18589L1855.29 10.1833L1855.25 10.682ZM2396.57 10.8447C2398.22 10.9926 2399.88 11.1393 2401.54 11.2846L2401.58 10.7865L2401.67 9.79028L2401.71 9.29218C2400.05 9.14707 2398.4 9.00046 2396.75 8.85264L2396.7 9.35065L2396.62 10.3467L2396.57 10.8447ZM2911.89 10.9064C2913.54 11.0218 2915.2 11.1365 2916.87 11.2503L2916.91 10.7515L2916.97 9.75378L2917.01 9.25493C2915.34 9.14122 2913.68 9.02662 2912.03 8.91125L2912 9.41003L2911.93 10.4076L2911.89 10.9064ZM1559.56 11.5624C1561.16 11.3884 1562.78 11.212 1564.43 11.0336L1564.38 10.5365L1564.27 9.54227L1564.22 9.04516C1562.57 9.22363 1560.94 9.40015 1559.35 9.5742L1559.4 10.0713L1559.51 11.0654L1559.56 11.5624ZM2584.72 11.8236C2586.35 11.6719 2587.98 11.5181 2589.61 11.3626L2589.56 10.8648L2589.47 9.86939L2589.42 9.37165C2587.8 9.52706 2586.17 9.68067 2584.53 9.83213L2584.58 10.33L2584.67 11.3257L2584.72 11.8236ZM1865.17 11.382C1866.81 11.4949 1868.47 11.6068 1870.13 11.7177L1870.16 11.2188L1870.23 10.221L1870.26 9.72209C1868.6 9.61133 1866.95 9.49949 1865.31 9.38669L1865.27 9.88552L1865.21 10.8832L1865.17 11.382ZM2105.9 11.9857C2107.6 11.8445 2109.28 11.7012 2110.94 11.5563L2110.89 11.0582L2110.8 10.062L2110.76 9.56392C2109.11 9.70863 2107.44 9.85162 2105.74 9.9926L2105.78 10.4909L2105.86 11.4875L2105.9 11.9857ZM2921.91 11.5872C2923.56 11.6955 2925.22 11.8028 2926.9 11.909L2926.93 11.41L2926.99 10.412L2927.02 9.91297C2925.35 9.80688 2923.69 9.69969 2922.04 9.59153L2922.01 10.0905L2921.94 11.0883L2921.91 11.5872ZM2406.5 11.7141C2408.16 11.855 2409.82 11.9941 2411.48 12.1313L2411.52 11.6329L2411.6 10.6363L2411.64 10.138C2409.98 10.0011 2408.33 9.86205 2406.67 9.72128L2406.63 10.2195L2406.55 11.2159L2406.5 11.7141ZM1875.1 12.0433C1876.74 12.1491 1878.39 12.2537 1880.05 12.357L1880.08 11.858L1880.14 10.8599L1880.17 10.3608C1878.51 10.2576 1876.86 10.1531 1875.22 10.0474L1875.19 10.5464L1875.13 11.5443L1875.1 12.0433ZM1549.77 12.6346L1551.25 12.4727L1554.67 12.0979L1554.61 11.6009L1554.5 10.6068L1554.45 10.1098L1551.03 10.4847L1549.56 10.6466L1549.61 11.1436L1549.72 12.1376L1549.77 12.6346ZM2931.93 12.2219C2933.58 12.3223 2935.24 12.4216 2936.92 12.5196L2936.95 12.0204L2937.01 11.0221L2937.04 10.523C2935.36 10.4251 2933.7 10.3259 2932.05 10.2256L2932.02 10.7246L2931.96 11.7228L2931.93 12.2219ZM2574.91 12.6972C2576.55 12.5573 2578.19 12.4146 2579.82 12.2694L2579.77 11.7714L2579.68 10.7754L2579.64 10.2773C2578.01 10.4223 2576.38 10.5647 2574.74 10.7044L2574.78 11.2026L2574.87 12.199L2574.91 12.6972ZM2095.77 12.7792C2097.49 12.6528 2099.18 12.5241 2100.85 12.3933L2100.81 11.8948L2100.74 10.8979L2100.7 10.3994C2099.03 10.53 2097.34 10.6584 2095.62 10.7846L2095.66 11.2832L2095.73 12.2805L2095.77 12.7792ZM2416.44 12.5329C2418.1 12.6637 2419.75 12.7924 2421.42 12.9185L2421.45 12.4199L2421.53 11.4228L2421.57 10.9242C2419.91 10.7983 2418.25 10.6698 2416.6 10.5391L2416.56 11.0375L2416.48 12.0344L2416.44 12.5329ZM1885.02 12.6605C1886.66 12.7584 1888.31 12.855 1889.97 12.9502L1890 12.451L1890.06 11.4526L1890.09 10.9535C1888.43 10.8584 1886.78 10.7619 1885.14 10.664L1885.11 11.1631L1885.05 12.1614L1885.02 12.6605ZM2941.96 12.8071C2943.61 12.8991 2945.27 12.9898 2946.95 13.0791L2946.98 12.5798L2947.03 11.5813L2947.06 11.082C2945.38 10.9927 2943.71 10.9021 2942.07 10.8102L2942.04 11.3094L2941.98 12.3078L2941.96 12.8071ZM2565.11 13.4865C2566.76 13.3619 2568.39 13.234 2570.01 13.1031L2569.97 12.6047L2569.89 11.6079L2569.85 11.1095C2568.23 11.2402 2566.6 11.3678 2564.96 11.4922L2565 11.9908L2565.07 12.9879L2565.11 13.4865ZM2085.67 13.4713C2087.38 13.3624 2089.06 13.2509 2090.72 13.1371L2090.69 12.6383L2090.62 11.6406L2090.59 11.1418C2088.93 11.2553 2087.25 11.3666 2085.54 11.4754L2085.57 11.9744L2085.64 12.9723L2085.67 13.4713ZM1540 13.7007C1541.58 13.5305 1543.21 13.3533 1544.89 13.1701L1544.83 12.673L1544.72 11.679L1544.67 11.1819C1542.99 11.365 1541.36 11.5421 1539.79 11.7123L1539.84 12.2094L1539.95 13.2036L1540 13.7007ZM1894.95 13.2294C1896.59 13.319 1898.24 13.4071 1899.9 13.4937L1899.92 12.9943L1899.98 11.9957L1900 11.4964C1898.34 11.4099 1896.7 11.3219 1895.06 11.2324L1895.04 11.7316L1894.98 12.7301L1894.95 13.2294ZM2426.4 13.2868C2428.05 13.4054 2429.7 13.5212 2431.37 13.6341L2431.4 13.1353L2431.47 12.1376L2431.5 11.6387C2429.84 11.526 2428.19 11.4103 2426.55 11.292L2426.51 11.7907L2426.44 12.7881L2426.4 13.2868ZM2951.99 13.3406C2953.64 13.4238 2955.3 13.5057 2956.98 13.5861L2957 13.0867L2957.05 12.0878L2957.07 11.5884C2955.4 11.5081 2953.74 11.4263 2952.09 11.3432L2952.07 11.8425L2952.02 12.8412L2951.99 13.3406ZM1904.88 13.747C1906.52 13.828 1908.17 13.9073 1909.83 13.9849L1909.85 13.4855L1909.9 12.4865L1909.92 11.9871C1908.26 11.9096 1906.62 11.8303 1904.98 11.7495L1904.96 12.2489L1904.91 13.2476L1904.88 13.747ZM2075.54 14.0682C2077.24 13.9761 2078.91 13.8815 2080.56 13.7845L2080.53 13.2853L2080.47 12.287L2080.44 11.7879C2078.8 11.8848 2077.13 11.9792 2075.43 12.0712L2075.46 12.5704L2075.51 13.5689L2075.54 14.0682ZM2962.04 13.8216C2963.68 13.8959 2965.34 13.9688 2967.01 14.0402L2967.03 13.5407L2967.07 12.5416L2967.09 12.042C2965.42 11.9707 2963.77 11.8979 2962.13 11.8237L2962.1 12.3232L2962.06 13.3221L2962.04 13.8216ZM2555.29 14.1784C2556.94 14.0712 2558.57 13.9603 2560.19 13.846L2560.16 13.3472L2560.09 12.3497L2560.05 11.8509C2558.43 11.965 2556.8 12.0757 2555.16 12.1826L2555.19 12.6816L2555.25 13.6794L2555.29 14.1784ZM2436.35 13.9611C2438 14.0662 2439.66 14.1682 2441.34 14.2669L2441.37 13.7677L2441.43 12.7695L2441.46 12.2703C2439.79 12.1719 2438.12 12.07 2436.47 11.9651L2436.44 12.4641L2436.38 13.4621L2436.35 13.9611ZM1914.81 14.2113C1916.45 14.2834 1918.1 14.3538 1919.76 14.4223L1919.78 13.9227L1919.82 12.9236L1919.84 12.424C1918.19 12.3555 1916.54 12.2853 1914.9 12.2133L1914.88 12.7128L1914.84 13.7118L1914.81 14.2113ZM1530.24 14.7252C1531.79 14.5688 1533.42 14.4003 1535.12 14.2213L1535.07 13.7241L1534.96 12.7296L1534.91 12.2323C1533.21 12.4111 1531.59 12.5792 1530.04 12.7353L1530.09 13.2328L1530.19 14.2278L1530.24 14.7252ZM2972.08 14.2497C2973.72 14.3154 2975.38 14.3795 2977.05 14.4421L2977.07 13.9425L2977.1 12.9432L2977.12 12.4435C2975.45 12.381 2973.8 12.3169 2972.16 12.2513L2972.14 12.7509L2972.1 13.7501L2972.08 14.2497ZM2065.39 14.5724C2067.1 14.495 2068.79 14.4151 2070.45 14.3326L2070.42 13.8332L2070.37 12.8345L2070.35 12.3351C2068.69 12.4174 2067.01 12.4972 2065.3 12.5744L2065.33 13.0739L2065.37 14.0729L2065.39 14.5724ZM2545.46 14.7607C2547.12 14.6721 2548.76 14.5795 2550.38 14.4831L2550.35 13.9839L2550.29 12.9857L2550.26 12.4866C2548.64 12.5827 2547.01 12.6751 2545.35 12.7635L2545.38 13.2628L2545.43 14.2614L2545.46 14.7607ZM2446.31 14.5478C2447.96 14.6373 2449.62 14.7233 2451.29 14.8057L2451.31 14.3063L2451.36 13.3075L2451.39 12.8081C2449.72 12.7259 2448.06 12.64 2446.41 12.5508L2446.39 13.05L2446.33 14.0486L2446.31 14.5478ZM1924.74 14.6211C1926.38 14.6842 1928.04 14.7456 1929.7 14.805L1929.72 14.3053L1929.75 13.306L1929.77 12.8063C1928.11 12.7469 1926.46 12.6856 1924.82 12.6226L1924.8 13.1222L1924.76 14.1214L1924.74 14.6211ZM2982.09 14.6248C2983.75 14.6825 2985.41 14.7386 2987.1 14.7932L2987.11 14.2934L2987.14 13.294L2987.16 12.7942C2985.48 12.7397 2983.81 12.6836 2982.16 12.626L2982.15 13.1257L2982.11 14.1251L2982.09 14.6248ZM2055.24 14.9886C2056.96 14.9253 2058.65 14.8593 2060.32 14.7909L2060.3 14.2913L2060.26 13.2922L2060.24 12.7926C2058.58 12.8609 2056.88 12.9267 2055.17 12.9899L2055.19 13.4896L2055.22 14.4889L2055.24 14.9886ZM2992.11 14.9497C2993.78 14.9997 2995.47 15.0481 2997.17 15.095L2997.18 14.5952L2997.21 13.5955L2997.22 13.0957C2995.52 13.0489 2993.84 13.0005 2992.17 12.9506L2992.16 13.4503L2992.13 14.4499L2992.11 14.9497ZM1934.67 14.9758C1936.32 15.03 1937.98 15.0824 1939.64 15.1327L1939.66 14.633L1939.69 13.6334L1939.71 13.1336C1938.04 13.0833 1936.38 13.0311 1934.74 12.9769L1934.72 13.4766L1934.69 14.4761L1934.67 14.9758ZM2535.64 15.2281C2537.29 15.1593 2538.92 15.0862 2540.54 15.0093L2540.52 14.5098L2540.47 13.511L2540.45 13.0115C2538.83 13.0883 2537.2 13.1612 2535.56 13.2298L2535.58 13.7294L2535.62 14.7285L2535.64 15.2281ZM2456.29 15.0394C2457.93 15.1121 2459.59 15.1813 2461.26 15.2465L2461.28 14.7469L2461.31 13.7477L2461.33 13.2481C2459.67 13.1829 2458.02 13.114 2456.38 13.0413L2456.35 13.5408L2456.31 14.5399L2456.29 15.0394ZM2045.1 15.3227C2046.82 15.2726 2048.51 15.22 2050.19 15.1649L2050.17 14.6652L2050.14 13.6657L2050.12 13.166C2048.45 13.221 2046.76 13.2735 2045.04 13.3235L2045.05 13.8233L2045.08 14.8229L2045.1 15.3227ZM1520.42 15.6253C1521.91 15.5089 1523.54 15.3675 1525.31 15.2041L1525.26 14.7062L1525.17 13.7105L1525.12 13.2126C1523.37 13.3754 1521.74 13.5159 1520.26 13.6313L1520.3 14.1298L1520.38 15.1268L1520.42 15.6253ZM3002.14 15.2263C3003.82 15.2685 3005.51 15.3091 3007.21 15.3481L3007.22 14.8482L3007.24 13.8485L3007.26 13.3486C3005.55 13.3097 3003.87 13.2691 3002.19 13.2269L3002.18 13.7267L3002.16 14.7264L3002.14 15.2263ZM1944.6 15.2756C1946.26 15.321 1947.92 15.3643 1949.6 15.4057L1949.61 14.9059L1949.64 13.9062L1949.65 13.4063C1947.97 13.365 1946.31 13.3217 1944.66 13.2764L1944.65 13.7762L1944.62 14.7758L1944.6 15.2756ZM2525.79 15.5808C2527.45 15.5311 2529.09 15.4772 2530.71 15.4192L2530.69 14.9195L2530.65 13.9201L2530.64 13.4205C2529.02 13.4783 2527.38 13.5322 2525.73 13.5817L2525.75 14.0814L2525.78 15.081L2525.79 15.5808ZM2466.25 15.429C2467.9 15.485 2469.56 15.5371 2471.24 15.5852L2471.25 15.0854L2471.28 14.0858L2471.29 13.586C2469.62 13.5381 2467.97 13.486 2466.32 13.4302L2466.3 13.9299L2466.27 14.9293L2466.25 15.429ZM3012.2 15.4566C3013.85 15.4908 3015.53 15.5235 3017.21 15.5546L3017.22 15.0547L3017.24 14.0549L3017.25 13.555C3015.56 13.5239 3013.89 13.4912 3012.24 13.457L3012.23 13.9569L3012.21 14.9567L3012.2 15.4566ZM2034.96 15.5811C2036.68 15.5433 2038.37 15.5031 2040.04 15.4605L2040.03 14.9607L2040 13.961L2039.99 13.4612C2038.32 13.5037 2036.63 13.5439 2034.91 13.5816L2034.92 14.0814L2034.95 15.0812L2034.96 15.5811ZM1954.54 15.521C1956.2 15.5574 1957.87 15.5919 1959.55 15.6243L1959.56 15.1243L1959.58 14.1245L1959.59 13.6246C1957.91 13.5923 1956.24 13.5579 1954.58 13.5214L1954.57 14.0213L1954.55 15.0211L1954.54 15.521ZM3022.29 15.6427C3023.93 15.6693 3025.58 15.6945 3027.25 15.7182L3027.26 15.2182L3027.27 14.2183L3027.28 13.7184C3025.61 13.6947 3023.96 13.6696 3022.32 13.6429L3022.31 14.1429L3022.3 15.1427L3022.29 15.6427ZM2024.82 15.77C2026.53 15.7437 2028.22 15.7149 2029.89 15.6839L2029.88 15.184L2029.86 14.1841L2029.85 13.6842C2028.19 13.7152 2026.5 13.7439 2024.79 13.7703L2024.8 14.2702L2024.82 15.2701L2024.82 15.77ZM1964.48 15.7126C1966.13 15.7401 1967.8 15.7655 1969.47 15.7888L1969.48 15.2889L1969.49 14.289L1969.5 13.789C1967.83 13.7657 1966.16 13.7403 1964.52 13.7129L1964.51 14.2129L1964.49 15.2127L1964.48 15.7126ZM2515.93 15.82C2517.6 15.7889 2519.25 15.7535 2520.88 15.7138L2520.87 15.214L2520.85 14.2143L2520.83 13.7144C2519.2 13.754 2517.56 13.7893 2515.89 13.8203L2515.9 14.3202L2515.92 15.32L2515.93 15.82ZM2476.22 15.7151C2477.88 15.754 2479.55 15.7888 2481.23 15.8194L2481.24 15.3195L2481.26 14.3197L2481.27 13.8197C2479.59 13.7892 2477.92 13.7544 2476.26 13.7156L2476.25 14.2155L2476.23 15.2152L2476.22 15.7151ZM3032.29 15.7846C3033.96 15.8048 3035.64 15.8235 3037.33 15.8406L3037.34 15.3406L3037.35 14.3407L3037.35 13.8407C3035.66 13.8236 3033.98 13.8049 3032.32 13.7847L3032.31 14.2847L3032.3 15.2846L3032.29 15.7846ZM2014.69 15.8955C2016.39 15.8795 2018.07 15.8612 2019.72 15.8408L2019.72 15.3408L2019.7 14.3409L2019.7 13.8409C2018.04 13.8614 2016.37 13.8796 2014.67 13.8955L2014.68 14.3955L2014.69 15.3955L2014.69 15.8955ZM1974.44 15.8516C1976.08 15.8703 1977.73 15.8869 1979.4 15.9015L1979.4 15.4015L1979.41 14.4016L1979.41 13.9016C1977.75 13.887 1976.1 13.8704 1974.46 13.8518L1974.45 14.3517L1974.44 15.3517L1974.44 15.8516ZM3042.31 15.8862C3043.98 15.8999 3045.67 15.9121 3047.37 15.9228L3047.37 15.4228L3047.38 14.4229L3047.38 13.9229C3045.68 13.9122 3044 13.9 3042.33 13.8863L3042.32 14.3863L3042.31 15.3862L3042.31 15.8862ZM2486.19 15.8967C2487.85 15.9181 2489.52 15.9354 2491.2 15.9484L2491.2 15.4484L2491.21 14.4485L2491.21 13.9485C2489.54 13.9355 2487.87 13.9182 2486.22 13.8968L2486.21 14.3968L2486.2 15.3967L2486.19 15.8967ZM2506.1 15.9489C2507.77 15.9359 2509.42 15.9187 2511.04 15.8973L2511.04 15.3974L2511.02 14.3975L2511.02 13.8975C2509.39 13.9188 2507.75 13.936 2506.09 13.9489L2506.09 14.4489L2506.1 15.4489L2506.1 15.9489ZM2004.54 15.9626C2006.23 15.956 2007.89 15.9473 2009.54 15.9365L2009.53 15.4366L2009.53 14.4366L2009.52 13.9366C2007.88 13.9474 2006.22 13.956 2004.54 13.9626L2004.54 14.4626L2004.54 15.4626L2004.54 15.9626ZM1984.41 15.939C1986.04 15.9492 1987.68 15.9573 1989.34 15.9635L1989.34 15.4635L1989.34 14.4635L1989.34 13.9635C1987.69 13.9573 1986.05 13.9492 1984.42 13.9391L1984.42 14.4391L1984.41 15.439L1984.41 15.939ZM3052.39 15.9497C3054.04 15.957 3055.7 15.9629 3057.38 15.9673L3057.38 15.4673L3057.38 14.4673L3057.38 13.9674C3055.71 13.9629 3054.05 13.957 3052.4 13.9497L3052.4 14.4497L3052.39 15.4497L3052.39 15.9497ZM2496.18 15.9741C2497.01 15.9763 2497.85 15.9774 2498.7 15.9774C2499.54 15.9774 2500.37 15.9763 2501.19 15.9742L2501.19 15.4742L2501.19 14.4742L2501.19 13.9742C2500.36 13.9763 2499.53 13.9774 2498.7 13.9774C2497.86 13.9774 2497.02 13.9763 2496.18 13.9741L2496.18 14.4741L2496.18 15.4741L2496.18 15.9741ZM1996.85 15.9774C1997.72 15.9774 1998.58 15.9768 1999.44 15.9757L1999.44 15.4757L1999.44 14.4757L1999.44 13.9757C1998.58 13.9768 1997.72 13.9774 1996.85 13.9774C1996 13.9774 1995.17 13.9768 1994.33 13.9758L1994.33 14.4758L1994.33 15.4758L1994.33 15.9758C1995.16 15.9768 1996 15.9774 1996.85 15.9774ZM3062.44 15.9762C3063.29 15.977 3064.14 15.9774 3065 15.9774V15.4774V14.4774V13.9774L3063.3 13.9769L3062.44 13.9762L3062.44 14.4762L3062.44 15.4762L3062.44 15.9762Z" fill="#021620"/>
</svg>
