<svg width="186" height="51" viewBox="0 0 186 51" fill="none" xmlns="http://www.w3.org/2000/svg">
<path fill-rule="evenodd" clip-rule="evenodd" d="M31.7655 2C19.0537 2 8.74873 12.3049 8.74873 25.0167C8.74873 29.2811 9.90846 33.2747 11.9297 36.6992C11.3833 41.0112 8.44613 48.7004 1 48.7004C4.96285 48.9221 14.063 48.3036 18.8427 44.066C22.5267 46.5701 26.9752 48.0334 31.7655 48.0334H160.983C173.695 48.0334 184 37.7285 184 25.0167C184 12.3049 173.695 2 160.983 2H31.7655Z" fill="#B4D8E7"/>
<path d="M11.9297 36.6992L13.4178 36.8878L13.4823 36.3787L13.2215 35.9368L11.9297 36.6992ZM1 48.7004V47.2004L0.916192 50.198L1 48.7004ZM18.8427 44.066L19.6859 42.8254L18.7208 42.1695L17.8476 42.9436L18.8427 44.066ZM10.2487 25.0167C10.2487 13.1334 19.8821 3.5 31.7655 3.5V0.5C18.2252 0.5 7.24873 11.4765 7.24873 25.0167H10.2487ZM13.2215 35.9368C11.3328 32.7369 10.2487 29.0057 10.2487 25.0167H7.24873C7.24873 29.5566 8.4841 33.8125 10.6379 37.4616L13.2215 35.9368ZM1 50.2004C5.33045 50.2004 8.34094 47.9319 10.2786 45.1805C12.187 42.4707 13.1222 39.2207 13.4178 36.8878L10.4416 36.5106C10.1908 38.4896 9.38426 41.2402 7.82586 43.4531C6.29684 45.6242 4.11568 47.2004 1 47.2004V50.2004ZM17.8476 42.9436C15.7529 44.8007 12.5935 45.9465 9.32799 46.5832C6.09338 47.2138 2.95292 47.3073 1.08381 47.2027L0.916192 50.198C3.00993 50.3152 6.40098 50.2103 9.90208 49.5277C13.3723 48.8511 17.1528 47.5688 19.8378 45.1884L17.8476 42.9436ZM31.7655 46.5334C27.2853 46.5334 23.1291 45.1658 19.6859 42.8254L17.9995 45.3066C21.9244 47.9743 26.6651 49.5334 31.7655 49.5334V46.5334ZM160.983 46.5334H31.7655V49.5334H160.983V46.5334ZM182.5 25.0167C182.5 36.9001 172.866 46.5334 160.983 46.5334V49.5334C174.523 49.5334 185.5 38.5569 185.5 25.0167H182.5ZM160.983 3.5C172.866 3.5 182.5 13.1334 182.5 25.0167H185.5C185.5 11.4765 174.523 0.5 160.983 0.5V3.5ZM31.7655 3.5H160.983V0.5H31.7655V3.5Z" fill="#F9F9F9"/>
<path d="M40.5193 23.3613V24.8945H32.824V23.3613H40.5193ZM33.117 17.248V31.4668H31.2322V17.248H33.117ZM42.16 17.248V31.4668H40.285V17.248H42.16ZM47.199 20.9004V31.4668H45.3826V20.9004H47.199ZM45.2459 18.0977C45.2459 17.8047 45.3338 17.5573 45.5096 17.3555C45.6919 17.1536 45.9588 17.0527 46.3104 17.0527C46.6554 17.0527 46.9191 17.1536 47.1014 17.3555C47.2902 17.5573 47.3846 17.8047 47.3846 18.0977C47.3846 18.3776 47.2902 18.6185 47.1014 18.8203C46.9191 19.0156 46.6554 19.1133 46.3104 19.1133C45.9588 19.1133 45.6919 19.0156 45.5096 18.8203C45.3338 18.6185 45.2459 18.3776 45.2459 18.0977ZM51.74 29.3184V30.7734C51.74 31.3659 51.5903 31.9909 51.2908 32.6484C50.9913 33.3125 50.5714 33.8659 50.0311 34.3086L49.0057 33.5957C49.214 33.3092 49.3898 33.0163 49.533 32.7168C49.6762 32.4238 49.7837 32.1178 49.8553 31.7988C49.9334 31.4863 49.9725 31.1543 49.9725 30.8027V29.3184H51.74ZM61.3006 17.248V31.4668H59.4158V17.248H61.3006ZM66.2811 16.4668V17.7168C66.2811 18.1074 66.2127 18.5208 66.076 18.957C65.9458 19.3867 65.7537 19.8034 65.4998 20.207C65.2459 20.6042 64.9399 20.9525 64.5818 21.252L63.5467 20.5391C63.8527 20.1094 64.0838 19.6699 64.24 19.2207C64.4028 18.765 64.4842 18.2734 64.4842 17.7461V16.4668H66.2811ZM70.0604 23V31.4668H68.2439V20.9004H69.9627L70.0604 23ZM69.6893 25.7832L68.8494 25.7539C68.8559 25.0312 68.9503 24.3639 69.1326 23.752C69.3149 23.1335 69.5851 22.5964 69.9432 22.1406C70.3012 21.6849 70.7472 21.3333 71.2811 21.0859C71.8149 20.832 72.4334 20.7051 73.1365 20.7051C73.6313 20.7051 74.087 20.7767 74.5037 20.9199C74.9204 21.0566 75.2817 21.2747 75.5877 21.5742C75.8937 21.8737 76.1313 22.2578 76.3006 22.7266C76.4699 23.1953 76.5545 23.7617 76.5545 24.4258V31.4668H74.7479V24.5137C74.7479 23.9603 74.6535 23.5176 74.4647 23.1855C74.2824 22.8535 74.0219 22.6126 73.6834 22.4629C73.3449 22.3066 72.9477 22.2285 72.492 22.2285C71.9581 22.2285 71.5122 22.3229 71.1541 22.5117C70.796 22.7005 70.5096 22.9609 70.2947 23.293C70.0799 23.625 69.9236 24.0059 69.826 24.4355C69.7348 24.8587 69.6893 25.3079 69.6893 25.7832ZM76.535 24.7871L75.324 25.1582C75.3305 24.5788 75.4249 24.0221 75.6072 23.4883C75.796 22.9544 76.0662 22.4792 76.4178 22.0625C76.7759 21.6458 77.2153 21.3171 77.7361 21.0762C78.257 20.8288 78.8527 20.7051 79.5232 20.7051C80.0897 20.7051 80.591 20.7799 81.0272 20.9297C81.4699 21.0794 81.841 21.3105 82.1404 21.623C82.4464 21.929 82.6775 22.3229 82.8338 22.8047C82.99 23.2865 83.0682 23.8594 83.0682 24.5234V31.4668H81.2518V24.5039C81.2518 23.9115 81.1574 23.4525 80.9686 23.127C80.7863 22.7949 80.5259 22.5638 80.1873 22.4336C79.8553 22.2969 79.4581 22.2285 78.9959 22.2285C78.5988 22.2285 78.2472 22.2969 77.9412 22.4336C77.6352 22.5703 77.3781 22.7591 77.1697 23C76.9614 23.2344 76.8019 23.5046 76.6912 23.8105C76.587 24.1165 76.535 24.4421 76.535 24.7871ZM92.9217 17.248V31.4668H91.0369V17.248H92.9217ZM101.506 17.248L95.5975 23.8789L92.2772 27.3262L91.9647 25.3145L94.4647 22.5605L99.24 17.248H101.506ZM99.6893 31.4668L94.4256 24.5332L95.5486 23.0391L101.935 31.4668H99.6893ZM109.553 29.6602V24.2207C109.553 23.804 109.468 23.4427 109.299 23.1367C109.136 22.8242 108.888 22.5833 108.556 22.4141C108.224 22.2448 107.814 22.1602 107.326 22.1602C106.87 22.1602 106.47 22.2383 106.125 22.3945C105.786 22.5508 105.519 22.7559 105.324 23.0098C105.135 23.2637 105.041 23.5371 105.041 23.8301H103.234C103.234 23.4525 103.332 23.0781 103.527 22.707C103.722 22.3359 104.002 22.0007 104.367 21.7012C104.738 21.3952 105.181 21.1543 105.695 20.9785C106.216 20.7962 106.795 20.7051 107.433 20.7051C108.202 20.7051 108.879 20.8353 109.465 21.0957C110.057 21.3561 110.519 21.75 110.851 22.2773C111.19 22.7982 111.359 23.4525 111.359 24.2402V29.1621C111.359 29.5137 111.388 29.888 111.447 30.2852C111.512 30.6823 111.607 31.0241 111.73 31.3105V31.4668H109.846C109.754 31.2585 109.683 30.9818 109.631 30.6367C109.579 30.2852 109.553 29.9596 109.553 29.6602ZM109.865 25.0605L109.885 26.3301H108.058C107.544 26.3301 107.085 26.3724 106.681 26.457C106.278 26.5352 105.939 26.6556 105.666 26.8184C105.392 26.9811 105.184 27.1862 105.041 27.4336C104.898 27.6745 104.826 27.9577 104.826 28.2832C104.826 28.6152 104.901 28.918 105.051 29.1914C105.2 29.4648 105.425 29.6829 105.724 29.8457C106.03 30.002 106.405 30.0801 106.847 30.0801C107.401 30.0801 107.889 29.9629 108.312 29.7285C108.735 29.4941 109.071 29.2077 109.318 28.8691C109.572 28.5306 109.709 28.2018 109.728 27.8828L110.5 28.752C110.454 29.0254 110.331 29.3281 110.129 29.6602C109.927 29.9922 109.657 30.3112 109.318 30.6172C108.986 30.9167 108.589 31.1673 108.127 31.3691C107.671 31.5645 107.157 31.6621 106.584 31.6621C105.868 31.6621 105.239 31.5221 104.699 31.2422C104.165 30.9622 103.749 30.5879 103.449 30.1191C103.156 29.6439 103.01 29.1133 103.01 28.5273C103.01 27.9609 103.12 27.4629 103.342 27.0332C103.563 26.597 103.882 26.2357 104.299 25.9492C104.715 25.6562 105.217 25.4349 105.803 25.2852C106.388 25.1354 107.043 25.0605 107.765 25.0605H109.865ZM120.353 28.6641C120.353 28.4036 120.295 28.1628 120.178 27.9414C120.067 27.7135 119.836 27.5085 119.484 27.3262C119.139 27.1374 118.618 26.9746 117.922 26.8379C117.336 26.7142 116.805 26.5677 116.33 26.3984C115.861 26.2292 115.461 26.0241 115.129 25.7832C114.803 25.5423 114.553 25.2591 114.377 24.9336C114.201 24.6081 114.113 24.2272 114.113 23.791C114.113 23.3743 114.204 22.9805 114.387 22.6094C114.575 22.2383 114.839 21.9095 115.178 21.623C115.523 21.3366 115.936 21.112 116.418 20.9492C116.9 20.7865 117.437 20.7051 118.029 20.7051C118.875 20.7051 119.598 20.8548 120.197 21.1543C120.796 21.4538 121.255 21.8542 121.574 22.3555C121.893 22.8503 122.053 23.4004 122.053 24.0059H120.246C120.246 23.7129 120.158 23.4297 119.982 23.1562C119.813 22.8763 119.562 22.6452 119.23 22.4629C118.905 22.2806 118.504 22.1895 118.029 22.1895C117.528 22.1895 117.121 22.2676 116.808 22.4238C116.502 22.5736 116.278 22.7656 116.135 23C115.998 23.2344 115.929 23.4818 115.929 23.7422C115.929 23.9375 115.962 24.1133 116.027 24.2695C116.099 24.4193 116.222 24.5592 116.398 24.6895C116.574 24.8132 116.821 24.9303 117.14 25.041C117.459 25.1517 117.866 25.2624 118.361 25.373C119.227 25.5684 119.94 25.8027 120.5 26.0762C121.06 26.3496 121.476 26.6849 121.75 27.082C122.023 27.4792 122.16 27.9609 122.16 28.5273C122.16 28.9896 122.062 29.4128 121.867 29.7969C121.678 30.181 121.402 30.513 121.037 30.793C120.679 31.0664 120.249 31.2812 119.748 31.4375C119.253 31.5872 118.696 31.6621 118.078 31.6621C117.147 31.6621 116.359 31.4961 115.715 31.1641C115.07 30.832 114.582 30.4023 114.25 29.875C113.918 29.3477 113.752 28.791 113.752 28.2051H115.568C115.594 28.6999 115.737 29.0938 115.998 29.3867C116.258 29.6732 116.577 29.8783 116.955 30.002C117.332 30.1191 117.707 30.1777 118.078 30.1777C118.573 30.1777 118.986 30.1126 119.318 29.9824C119.657 29.8522 119.914 29.6732 120.09 29.4453C120.265 29.2174 120.353 28.957 120.353 28.6641ZM130.685 28.6641C130.685 28.4036 130.627 28.1628 130.51 27.9414C130.399 27.7135 130.168 27.5085 129.816 27.3262C129.471 27.1374 128.95 26.9746 128.254 26.8379C127.668 26.7142 127.137 26.5677 126.662 26.3984C126.193 26.2292 125.793 26.0241 125.461 25.7832C125.135 25.5423 124.885 25.2591 124.709 24.9336C124.533 24.6081 124.445 24.2272 124.445 23.791C124.445 23.3743 124.536 22.9805 124.719 22.6094C124.907 22.2383 125.171 21.9095 125.51 21.623C125.855 21.3366 126.268 21.112 126.75 20.9492C127.232 20.7865 127.769 20.7051 128.361 20.7051C129.207 20.7051 129.93 20.8548 130.529 21.1543C131.128 21.4538 131.587 21.8542 131.906 22.3555C132.225 22.8503 132.385 23.4004 132.385 24.0059H130.578C130.578 23.7129 130.49 23.4297 130.314 23.1562C130.145 22.8763 129.894 22.6452 129.562 22.4629C129.237 22.2806 128.836 22.1895 128.361 22.1895C127.86 22.1895 127.453 22.2676 127.14 22.4238C126.834 22.5736 126.61 22.7656 126.467 23C126.33 23.2344 126.262 23.4818 126.262 23.7422C126.262 23.9375 126.294 24.1133 126.359 24.2695C126.431 24.4193 126.554 24.5592 126.73 24.6895C126.906 24.8132 127.153 24.9303 127.472 25.041C127.791 25.1517 128.198 25.2624 128.693 25.373C129.559 25.5684 130.272 25.8027 130.832 26.0762C131.392 26.3496 131.808 26.6849 132.082 27.082C132.355 27.4792 132.492 27.9609 132.492 28.5273C132.492 28.9896 132.394 29.4128 132.199 29.7969C132.01 30.181 131.734 30.513 131.369 30.793C131.011 31.0664 130.581 31.2812 130.08 31.4375C129.585 31.5872 129.028 31.6621 128.41 31.6621C127.479 31.6621 126.691 31.4961 126.047 31.1641C125.402 30.832 124.914 30.4023 124.582 29.875C124.25 29.3477 124.084 28.791 124.084 28.2051H125.9C125.926 28.6999 126.069 29.0938 126.33 29.3867C126.59 29.6732 126.909 29.8783 127.287 30.002C127.665 30.1191 128.039 30.1777 128.41 30.1777C128.905 30.1777 129.318 30.1126 129.65 29.9824C129.989 29.8522 130.246 29.6732 130.422 29.4453C130.597 29.2174 130.685 28.957 130.685 28.6641ZM136.828 20.9004V31.4668H135.012V20.9004H136.828ZM134.875 18.0977C134.875 17.8047 134.963 17.5573 135.138 17.3555C135.321 17.1536 135.588 17.0527 135.939 17.0527C136.284 17.0527 136.548 17.1536 136.73 17.3555C136.919 17.5573 137.013 17.8047 137.013 18.0977C137.013 18.3776 136.919 18.6185 136.73 18.8203C136.548 19.0156 136.284 19.1133 135.939 19.1133C135.588 19.1133 135.321 19.0156 135.138 18.8203C134.963 18.6185 134.875 18.3776 134.875 18.0977ZM146.388 29.416V16.4668H148.205V31.4668H146.545L146.388 29.416ZM139.279 26.3008V26.0957C139.279 25.2884 139.377 24.556 139.572 23.8984C139.774 23.2344 140.057 22.6647 140.422 22.1895C140.793 21.7142 141.232 21.3496 141.74 21.0957C142.254 20.8353 142.827 20.7051 143.459 20.7051C144.123 20.7051 144.702 20.8223 145.197 21.0566C145.698 21.2845 146.122 21.6198 146.467 22.0625C146.818 22.4987 147.095 23.026 147.297 23.6445C147.499 24.263 147.638 24.9629 147.717 25.7441V26.6426C147.645 27.4173 147.505 28.1139 147.297 28.7324C147.095 29.3509 146.818 29.8783 146.467 30.3145C146.122 30.7507 145.698 31.0859 145.197 31.3203C144.696 31.5482 144.11 31.6621 143.439 31.6621C142.821 31.6621 142.254 31.5286 141.74 31.2617C141.232 30.9948 140.793 30.6204 140.422 30.1387C140.057 29.6569 139.774 29.0905 139.572 28.4395C139.377 27.7819 139.279 27.069 139.279 26.3008ZM141.096 26.0957V26.3008C141.096 26.8281 141.148 27.3229 141.252 27.7852C141.362 28.2474 141.532 28.6543 141.76 29.0059C141.987 29.3574 142.277 29.6341 142.629 29.8359C142.98 30.0312 143.4 30.1289 143.888 30.1289C144.487 30.1289 144.979 30.002 145.363 29.748C145.754 29.4941 146.066 29.1589 146.301 28.7422C146.535 28.3255 146.717 27.873 146.847 27.3848V25.0312C146.769 24.6732 146.655 24.3281 146.506 23.9961C146.362 23.6576 146.174 23.3581 145.939 23.0977C145.711 22.8307 145.428 22.6191 145.09 22.4629C144.758 22.3066 144.364 22.2285 143.908 22.2285C143.413 22.2285 142.987 22.3327 142.629 22.541C142.277 22.7428 141.987 23.0228 141.76 23.3809C141.532 23.7324 141.362 24.1426 141.252 24.6113C141.148 25.0736 141.096 25.5684 141.096 26.0957ZM153.986 30.373L156.926 20.9004H158.859L154.621 33.0977C154.523 33.3581 154.393 33.638 154.23 33.9375C154.074 34.2435 153.872 34.5332 153.625 34.8066C153.377 35.0801 153.078 35.3014 152.726 35.4707C152.381 35.6465 151.968 35.7344 151.486 35.7344C151.343 35.7344 151.161 35.7148 150.939 35.6758C150.718 35.6367 150.562 35.6042 150.471 35.5781L150.461 34.1133C150.513 34.1198 150.594 34.1263 150.705 34.1328C150.822 34.1458 150.903 34.1523 150.949 34.1523C151.359 34.1523 151.707 34.097 151.994 33.9863C152.28 33.8822 152.521 33.7031 152.717 33.4492C152.918 33.2018 153.091 32.86 153.234 32.4238L153.986 30.373ZM151.828 20.9004L154.572 29.1035L155.041 31.0078L153.742 31.6719L149.855 20.9004H151.828ZM162.638 17.248L162.512 27.4531H160.881L160.744 17.248H162.638ZM160.685 30.5586C160.685 30.2656 160.773 30.0182 160.949 29.8164C161.131 29.6146 161.398 29.5137 161.75 29.5137C162.095 29.5137 162.359 29.6146 162.541 29.8164C162.73 30.0182 162.824 30.2656 162.824 30.5586C162.824 30.8385 162.73 31.0794 162.541 31.2812C162.359 31.4831 162.095 31.584 161.75 31.584C161.398 31.584 161.131 31.4831 160.949 31.2812C160.773 31.0794 160.685 30.8385 160.685 30.5586Z" fill="#033962"/>
</svg>
