<svg width="529" height="95" viewBox="0 0 529 95" fill="none" xmlns="http://www.w3.org/2000/svg">
<mask id="mask0_142_1969" style="mask-type:alpha" maskUnits="userSpaceOnUse" x="6" y="19" width="518" height="58">
<path d="M6.74659 76V22.8H19.6666V64.6H43.3786V76H6.74659ZM69.5107 76.76C65.0521 76.76 61.1761 75.8733 57.8827 74.1C54.5894 72.276 52.0307 69.8187 50.2067 66.728C48.3827 63.5867 47.4707 60.0147 47.4707 56.012C47.4707 52.9213 47.9774 50.084 48.9907 47.5C50.0041 44.916 51.4227 42.6867 53.2467 40.812C55.0707 38.8867 57.2241 37.4173 59.7067 36.404C62.2401 35.34 65.0014 34.808 67.9907 34.808C70.8281 34.808 73.4121 35.3147 75.7427 36.328C78.1241 37.3413 80.1761 38.76 81.8987 40.584C83.6214 42.408 84.9387 44.5613 85.8507 47.044C86.7627 49.5267 87.1681 52.2373 87.0667 55.176L86.9907 58.444H54.8427L53.0947 51.604H77.1107L75.8187 53.048V51.528C75.7174 50.2613 75.3121 49.1467 74.6027 48.184C73.9441 47.1707 73.0574 46.3853 71.9427 45.828C70.8281 45.2707 69.5614 44.992 68.1427 44.992C66.1667 44.992 64.4694 45.3973 63.0507 46.208C61.6827 46.968 60.6441 48.108 59.9347 49.628C59.2254 51.0973 58.8707 52.9213 58.8707 55.1C58.8707 57.3293 59.3267 59.28 60.2387 60.952C61.2014 62.5733 62.5694 63.84 64.3427 64.752C66.1667 65.664 68.3201 66.12 70.8027 66.12C72.5254 66.12 74.0454 65.8667 75.3627 65.36C76.7307 64.8533 78.2001 63.992 79.7707 62.776L85.4707 70.832C83.9001 72.2 82.2281 73.3147 80.4547 74.176C78.6814 75.0373 76.8574 75.6707 74.9827 76.076C73.1587 76.532 71.3347 76.76 69.5107 76.76ZM98.158 76V25.46H110.318V76H98.158ZM91.014 46.284V35.644H118.146V46.284H91.014ZM125.171 43.396L121.675 39.14C123.803 38.228 125.501 37.1133 126.767 35.796C128.085 34.428 128.743 33.288 128.743 32.376C128.743 31.8187 128.541 31.2867 128.135 30.78C127.781 30.2227 127.223 29.716 126.463 29.26C125.298 28.3987 124.487 27.5627 124.031 26.752C123.575 25.9413 123.347 25.0547 123.347 24.092C123.347 22.5213 123.905 21.28 125.019 20.368C126.185 19.456 127.679 19 129.503 19C131.023 19 132.391 19.4053 133.607 20.216C134.874 20.976 135.862 22.0907 136.571 23.56C137.281 24.9787 137.635 26.6253 137.635 28.5C137.635 30.1213 137.331 31.7173 136.723 33.288C136.115 34.808 135.229 36.252 134.063 37.62C132.949 38.9373 131.631 40.1027 130.111 41.116C128.591 42.1293 126.945 42.8893 125.171 43.396ZM159.703 76.76C155.751 76.76 152.255 76.1267 149.215 74.86C146.226 73.5933 143.844 71.896 142.071 69.768L149.443 63.384C151.014 64.9547 152.787 66.12 154.763 66.88C156.739 67.5893 158.614 67.944 160.387 67.944C161.096 67.944 161.73 67.868 162.287 67.716C162.844 67.564 163.3 67.3613 163.655 67.108C164.06 66.804 164.364 66.4747 164.567 66.12C164.77 65.7147 164.871 65.2587 164.871 64.752C164.871 63.7387 164.415 62.9533 163.503 62.396C163.047 62.1427 162.287 61.8387 161.223 61.484C160.159 61.1293 158.791 60.724 157.119 60.268C154.738 59.66 152.66 58.9507 150.887 58.14C149.164 57.2787 147.746 56.2907 146.631 55.176C145.618 54.112 144.832 52.9467 144.275 51.68C143.718 50.3627 143.439 48.8933 143.439 47.272C143.439 45.3973 143.87 43.7 144.731 42.18C145.643 40.66 146.834 39.3427 148.303 38.228C149.823 37.1133 151.546 36.2773 153.471 35.72C155.447 35.112 157.474 34.808 159.551 34.808C161.78 34.808 163.908 35.0613 165.935 35.568C167.962 36.0747 169.836 36.784 171.559 37.696C173.332 38.608 174.903 39.6973 176.271 40.964L169.887 48.108C168.975 47.2467 167.936 46.4867 166.771 45.828C165.656 45.1187 164.491 44.5613 163.275 44.156C162.059 43.7507 160.944 43.548 159.931 43.548C159.171 43.548 158.487 43.624 157.879 43.776C157.322 43.8773 156.84 44.08 156.435 44.384C156.03 44.6373 155.726 44.9667 155.523 45.372C155.32 45.7267 155.219 46.1573 155.219 46.664C155.219 47.1707 155.346 47.652 155.599 48.108C155.903 48.564 156.308 48.944 156.815 49.248C157.322 49.552 158.132 49.9067 159.247 50.312C160.362 50.6667 161.882 51.1227 163.807 51.68C166.188 52.3387 168.24 53.0733 169.963 53.884C171.686 54.6947 173.054 55.6573 174.067 56.772C174.878 57.6333 175.486 58.6467 175.891 59.812C176.296 60.9267 176.499 62.1427 176.499 63.46C176.499 66.044 175.764 68.3493 174.295 70.376C172.876 72.352 170.9 73.9227 168.367 75.088C165.834 76.2027 162.946 76.76 159.703 76.76ZM225.78 76.76C221.878 76.76 218.382 75.848 215.292 74.024C212.201 72.2 209.744 69.7173 207.92 66.576C206.146 63.384 205.26 59.7867 205.26 55.784C205.26 51.7813 206.146 48.2093 207.92 45.068C209.744 41.876 212.201 39.368 215.292 37.544C218.382 35.72 221.878 34.808 225.78 34.808C229.377 34.808 232.67 35.4413 235.66 36.708C238.7 37.9747 241.106 39.748 242.88 42.028L236.268 49.932C235.558 49.1213 234.722 48.3613 233.76 47.652C232.797 46.9427 231.733 46.3853 230.568 45.98C229.402 45.5747 228.186 45.372 226.92 45.372C224.994 45.372 223.297 45.828 221.828 46.74C220.358 47.6013 219.218 48.8173 218.408 50.388C217.597 51.9587 217.192 53.7573 217.192 55.784C217.192 57.7093 217.597 59.4573 218.408 61.028C219.269 62.5987 220.434 63.84 221.904 64.752C223.373 65.664 225.045 66.12 226.92 66.12C228.237 66.12 229.453 65.968 230.568 65.664C231.682 65.3093 232.696 64.8027 233.608 64.144C234.57 63.4853 235.457 62.6747 236.268 61.712L242.804 69.692C241.081 71.8707 238.674 73.5933 235.584 74.86C232.544 76.1267 229.276 76.76 225.78 76.76ZM268.486 76.76C264.281 76.76 260.531 75.848 257.238 74.024C253.995 72.2 251.411 69.7173 249.486 66.576C247.611 63.4347 246.674 59.8373 246.674 55.784C246.674 51.7307 247.611 48.1333 249.486 44.992C251.411 41.8507 253.995 39.368 257.238 37.544C260.531 35.72 264.281 34.808 268.486 34.808C272.691 34.808 276.415 35.72 279.658 37.544C282.951 39.368 285.535 41.8507 287.41 44.992C289.285 48.1333 290.222 51.7307 290.222 55.784C290.222 59.8373 289.285 63.4347 287.41 66.576C285.535 69.7173 282.951 72.2 279.658 74.024C276.415 75.848 272.691 76.76 268.486 76.76ZM268.486 66.272C270.31 66.272 271.931 65.816 273.35 64.904C274.769 63.992 275.883 62.7507 276.694 61.18C277.505 59.6093 277.885 57.8107 277.834 55.784C277.885 53.7573 277.505 51.9587 276.694 50.388C275.883 48.7667 274.769 47.5 273.35 46.588C271.931 45.676 270.31 45.22 268.486 45.22C266.662 45.22 265.015 45.676 263.546 46.588C262.127 47.5 261.013 48.7667 260.202 50.388C259.391 51.9587 259.011 53.7573 259.062 55.784C259.011 57.8107 259.391 59.6093 260.202 61.18C261.013 62.7507 262.127 63.992 263.546 64.904C265.015 65.816 266.662 66.272 268.486 66.272ZM298.173 76V35.644H309.725L310.105 43.852L307.673 44.764C308.231 42.94 309.219 41.2933 310.637 39.824C312.107 38.304 313.855 37.088 315.881 36.176C317.908 35.264 320.036 34.808 322.265 34.808C325.305 34.808 327.864 35.4413 329.941 36.708C332.019 37.924 333.589 39.7733 334.653 42.256C335.717 44.688 336.249 47.6773 336.249 51.224V76H324.013V52.212C324.013 50.5907 323.785 49.248 323.329 48.184C322.873 47.12 322.164 46.3347 321.201 45.828C320.289 45.2707 319.149 45.0173 317.781 45.068C316.717 45.068 315.729 45.2453 314.817 45.6C313.905 45.904 313.12 46.3853 312.461 47.044C311.803 47.652 311.271 48.3613 310.865 49.172C310.511 49.9827 310.333 50.8693 310.333 51.832V76H304.329C302.911 76 301.695 76 300.681 76C299.668 76 298.832 76 298.173 76ZM346.416 76V35.644H357.968L358.348 43.852L355.916 44.764C356.473 42.94 357.461 41.2933 358.88 39.824C360.349 38.304 362.097 37.088 364.124 36.176C366.15 35.264 368.278 34.808 370.508 34.808C373.548 34.808 376.106 35.4413 378.184 36.708C380.261 37.924 381.832 39.7733 382.896 42.256C383.96 44.688 384.492 47.6773 384.492 51.224V76H372.256V52.212C372.256 50.5907 372.028 49.248 371.572 48.184C371.116 47.12 370.406 46.3347 369.444 45.828C368.532 45.2707 367.392 45.0173 366.024 45.068C364.96 45.068 363.972 45.2453 363.06 45.6C362.148 45.904 361.362 46.3853 360.704 47.044C360.045 47.652 359.513 48.3613 359.108 49.172C358.753 49.9827 358.576 50.8693 358.576 51.832V76H352.572C351.153 76 349.937 76 348.924 76C347.91 76 347.074 76 346.416 76ZM413.886 76.76C409.427 76.76 405.551 75.8733 402.258 74.1C398.964 72.276 396.406 69.8187 394.582 66.728C392.758 63.5867 391.846 60.0147 391.846 56.012C391.846 52.9213 392.352 50.084 393.366 47.5C394.379 44.916 395.798 42.6867 397.622 40.812C399.446 38.8867 401.599 37.4173 404.082 36.404C406.615 35.34 409.376 34.808 412.366 34.808C415.203 34.808 417.787 35.3147 420.118 36.328C422.499 37.3413 424.551 38.76 426.274 40.584C427.996 42.408 429.314 44.5613 430.226 47.044C431.138 49.5267 431.543 52.2373 431.442 55.176L431.366 58.444H399.218L397.47 51.604H421.486L420.194 53.048V51.528C420.092 50.2613 419.687 49.1467 418.978 48.184C418.319 47.1707 417.432 46.3853 416.318 45.828C415.203 45.2707 413.936 44.992 412.518 44.992C410.542 44.992 408.844 45.3973 407.426 46.208C406.058 46.968 405.019 48.108 404.31 49.628C403.6 51.0973 403.246 52.9213 403.246 55.1C403.246 57.3293 403.702 59.28 404.614 60.952C405.576 62.5733 406.944 63.84 408.718 64.752C410.542 65.664 412.695 66.12 415.178 66.12C416.9 66.12 418.42 65.8667 419.738 65.36C421.106 64.8533 422.575 63.992 424.146 62.776L429.846 70.832C428.275 72.2 426.603 73.3147 424.83 74.176C423.056 75.0373 421.232 75.6707 419.358 76.076C417.534 76.532 415.71 76.76 413.886 76.76ZM456.897 76.76C452.996 76.76 449.5 75.848 446.409 74.024C443.318 72.2 440.861 69.7173 439.037 66.576C437.264 63.384 436.377 59.7867 436.377 55.784C436.377 51.7813 437.264 48.2093 439.037 45.068C440.861 41.876 443.318 39.368 446.409 37.544C449.5 35.72 452.996 34.808 456.897 34.808C460.494 34.808 463.788 35.4413 466.777 36.708C469.817 37.9747 472.224 39.748 473.997 42.028L467.385 49.932C466.676 49.1213 465.84 48.3613 464.877 47.652C463.914 46.9427 462.85 46.3853 461.685 45.98C460.52 45.5747 459.304 45.372 458.037 45.372C456.112 45.372 454.414 45.828 452.945 46.74C451.476 47.6013 450.336 48.8173 449.525 50.388C448.714 51.9587 448.309 53.7573 448.309 55.784C448.309 57.7093 448.714 59.4573 449.525 61.028C450.386 62.5987 451.552 63.84 453.021 64.752C454.49 65.664 456.162 66.12 458.037 66.12C459.354 66.12 460.57 65.968 461.685 65.664C462.8 65.3093 463.813 64.8027 464.725 64.144C465.688 63.4853 466.574 62.6747 467.385 61.712L473.921 69.692C472.198 71.8707 469.792 73.5933 466.701 74.86C463.661 76.1267 460.393 76.76 456.897 76.76ZM483.947 76V25.46H496.107V76H483.947ZM476.803 46.284V35.644H503.935V46.284H476.803ZM513.392 56.62C512.987 53.5293 512.582 50.3373 512.176 47.044C511.771 43.7507 511.442 40.4827 511.188 37.24C510.935 33.9973 510.808 30.8813 510.808 27.892V21.964H523.652V27.892C523.652 30.932 523.526 34.0987 523.272 37.392C523.019 40.6853 522.69 43.9787 522.284 47.272C521.879 50.5147 521.448 53.6307 520.992 56.62H513.392ZM517.192 76.836C515.115 76.836 513.494 76.2533 512.328 75.088C511.163 73.9227 510.58 72.2507 510.58 70.072C510.58 68.0453 511.188 66.3987 512.404 65.132C513.62 63.8653 515.216 63.232 517.192 63.232C519.27 63.232 520.866 63.84 521.98 65.056C523.146 66.2213 523.728 67.8933 523.728 70.072C523.728 72.048 523.12 73.6693 521.904 74.936C520.688 76.2027 519.118 76.836 517.192 76.836Z" fill="#D4E6F1"/>
</mask>
<g mask="url(#mask0_142_1969)">
<path d="M6.74659 76V22.8H19.6666V64.6H43.3786V76H6.74659ZM69.5107 76.76C65.0521 76.76 61.1761 75.8733 57.8827 74.1C54.5894 72.276 52.0307 69.8187 50.2067 66.728C48.3827 63.5867 47.4707 60.0147 47.4707 56.012C47.4707 52.9213 47.9774 50.084 48.9907 47.5C50.0041 44.916 51.4227 42.6867 53.2467 40.812C55.0707 38.8867 57.2241 37.4173 59.7067 36.404C62.2401 35.34 65.0014 34.808 67.9907 34.808C70.8281 34.808 73.4121 35.3147 75.7427 36.328C78.1241 37.3413 80.1761 38.76 81.8987 40.584C83.6214 42.408 84.9387 44.5613 85.8507 47.044C86.7627 49.5267 87.1681 52.2373 87.0667 55.176L86.9907 58.444H54.8427L53.0947 51.604H77.1107L75.8187 53.048V51.528C75.7174 50.2613 75.3121 49.1467 74.6027 48.184C73.9441 47.1707 73.0574 46.3853 71.9427 45.828C70.8281 45.2707 69.5614 44.992 68.1427 44.992C66.1667 44.992 64.4694 45.3973 63.0507 46.208C61.6827 46.968 60.6441 48.108 59.9347 49.628C59.2254 51.0973 58.8707 52.9213 58.8707 55.1C58.8707 57.3293 59.3267 59.28 60.2387 60.952C61.2014 62.5733 62.5694 63.84 64.3427 64.752C66.1667 65.664 68.3201 66.12 70.8027 66.12C72.5254 66.12 74.0454 65.8667 75.3627 65.36C76.7307 64.8533 78.2001 63.992 79.7707 62.776L85.4707 70.832C83.9001 72.2 82.2281 73.3147 80.4547 74.176C78.6814 75.0373 76.8574 75.6707 74.9827 76.076C73.1587 76.532 71.3347 76.76 69.5107 76.76ZM98.158 76V25.46H110.318V76H98.158ZM91.014 46.284V35.644H118.146V46.284H91.014ZM125.171 43.396L121.675 39.14C123.803 38.228 125.501 37.1133 126.767 35.796C128.085 34.428 128.743 33.288 128.743 32.376C128.743 31.8187 128.541 31.2867 128.135 30.78C127.781 30.2227 127.223 29.716 126.463 29.26C125.298 28.3987 124.487 27.5627 124.031 26.752C123.575 25.9413 123.347 25.0547 123.347 24.092C123.347 22.5213 123.905 21.28 125.019 20.368C126.185 19.456 127.679 19 129.503 19C131.023 19 132.391 19.4053 133.607 20.216C134.874 20.976 135.862 22.0907 136.571 23.56C137.281 24.9787 137.635 26.6253 137.635 28.5C137.635 30.1213 137.331 31.7173 136.723 33.288C136.115 34.808 135.229 36.252 134.063 37.62C132.949 38.9373 131.631 40.1027 130.111 41.116C128.591 42.1293 126.945 42.8893 125.171 43.396ZM159.703 76.76C155.751 76.76 152.255 76.1267 149.215 74.86C146.226 73.5933 143.844 71.896 142.071 69.768L149.443 63.384C151.014 64.9547 152.787 66.12 154.763 66.88C156.739 67.5893 158.614 67.944 160.387 67.944C161.096 67.944 161.73 67.868 162.287 67.716C162.844 67.564 163.3 67.3613 163.655 67.108C164.06 66.804 164.364 66.4747 164.567 66.12C164.77 65.7147 164.871 65.2587 164.871 64.752C164.871 63.7387 164.415 62.9533 163.503 62.396C163.047 62.1427 162.287 61.8387 161.223 61.484C160.159 61.1293 158.791 60.724 157.119 60.268C154.738 59.66 152.66 58.9507 150.887 58.14C149.164 57.2787 147.746 56.2907 146.631 55.176C145.618 54.112 144.832 52.9467 144.275 51.68C143.718 50.3627 143.439 48.8933 143.439 47.272C143.439 45.3973 143.87 43.7 144.731 42.18C145.643 40.66 146.834 39.3427 148.303 38.228C149.823 37.1133 151.546 36.2773 153.471 35.72C155.447 35.112 157.474 34.808 159.551 34.808C161.78 34.808 163.908 35.0613 165.935 35.568C167.962 36.0747 169.836 36.784 171.559 37.696C173.332 38.608 174.903 39.6973 176.271 40.964L169.887 48.108C168.975 47.2467 167.936 46.4867 166.771 45.828C165.656 45.1187 164.491 44.5613 163.275 44.156C162.059 43.7507 160.944 43.548 159.931 43.548C159.171 43.548 158.487 43.624 157.879 43.776C157.322 43.8773 156.84 44.08 156.435 44.384C156.03 44.6373 155.726 44.9667 155.523 45.372C155.32 45.7267 155.219 46.1573 155.219 46.664C155.219 47.1707 155.346 47.652 155.599 48.108C155.903 48.564 156.308 48.944 156.815 49.248C157.322 49.552 158.132 49.9067 159.247 50.312C160.362 50.6667 161.882 51.1227 163.807 51.68C166.188 52.3387 168.24 53.0733 169.963 53.884C171.686 54.6947 173.054 55.6573 174.067 56.772C174.878 57.6333 175.486 58.6467 175.891 59.812C176.296 60.9267 176.499 62.1427 176.499 63.46C176.499 66.044 175.764 68.3493 174.295 70.376C172.876 72.352 170.9 73.9227 168.367 75.088C165.834 76.2027 162.946 76.76 159.703 76.76ZM225.78 76.76C221.878 76.76 218.382 75.848 215.292 74.024C212.201 72.2 209.744 69.7173 207.92 66.576C206.146 63.384 205.26 59.7867 205.26 55.784C205.26 51.7813 206.146 48.2093 207.92 45.068C209.744 41.876 212.201 39.368 215.292 37.544C218.382 35.72 221.878 34.808 225.78 34.808C229.377 34.808 232.67 35.4413 235.66 36.708C238.7 37.9747 241.106 39.748 242.88 42.028L236.268 49.932C235.558 49.1213 234.722 48.3613 233.76 47.652C232.797 46.9427 231.733 46.3853 230.568 45.98C229.402 45.5747 228.186 45.372 226.92 45.372C224.994 45.372 223.297 45.828 221.828 46.74C220.358 47.6013 219.218 48.8173 218.408 50.388C217.597 51.9587 217.192 53.7573 217.192 55.784C217.192 57.7093 217.597 59.4573 218.408 61.028C219.269 62.5987 220.434 63.84 221.904 64.752C223.373 65.664 225.045 66.12 226.92 66.12C228.237 66.12 229.453 65.968 230.568 65.664C231.682 65.3093 232.696 64.8027 233.608 64.144C234.57 63.4853 235.457 62.6747 236.268 61.712L242.804 69.692C241.081 71.8707 238.674 73.5933 235.584 74.86C232.544 76.1267 229.276 76.76 225.78 76.76ZM268.486 76.76C264.281 76.76 260.531 75.848 257.238 74.024C253.995 72.2 251.411 69.7173 249.486 66.576C247.611 63.4347 246.674 59.8373 246.674 55.784C246.674 51.7307 247.611 48.1333 249.486 44.992C251.411 41.8507 253.995 39.368 257.238 37.544C260.531 35.72 264.281 34.808 268.486 34.808C272.691 34.808 276.415 35.72 279.658 37.544C282.951 39.368 285.535 41.8507 287.41 44.992C289.285 48.1333 290.222 51.7307 290.222 55.784C290.222 59.8373 289.285 63.4347 287.41 66.576C285.535 69.7173 282.951 72.2 279.658 74.024C276.415 75.848 272.691 76.76 268.486 76.76ZM268.486 66.272C270.31 66.272 271.931 65.816 273.35 64.904C274.769 63.992 275.883 62.7507 276.694 61.18C277.505 59.6093 277.885 57.8107 277.834 55.784C277.885 53.7573 277.505 51.9587 276.694 50.388C275.883 48.7667 274.769 47.5 273.35 46.588C271.931 45.676 270.31 45.22 268.486 45.22C266.662 45.22 265.015 45.676 263.546 46.588C262.127 47.5 261.013 48.7667 260.202 50.388C259.391 51.9587 259.011 53.7573 259.062 55.784C259.011 57.8107 259.391 59.6093 260.202 61.18C261.013 62.7507 262.127 63.992 263.546 64.904C265.015 65.816 266.662 66.272 268.486 66.272ZM298.173 76V35.644H309.725L310.105 43.852L307.673 44.764C308.231 42.94 309.219 41.2933 310.637 39.824C312.107 38.304 313.855 37.088 315.881 36.176C317.908 35.264 320.036 34.808 322.265 34.808C325.305 34.808 327.864 35.4413 329.941 36.708C332.019 37.924 333.589 39.7733 334.653 42.256C335.717 44.688 336.249 47.6773 336.249 51.224V76H324.013V52.212C324.013 50.5907 323.785 49.248 323.329 48.184C322.873 47.12 322.164 46.3347 321.201 45.828C320.289 45.2707 319.149 45.0173 317.781 45.068C316.717 45.068 315.729 45.2453 314.817 45.6C313.905 45.904 313.12 46.3853 312.461 47.044C311.803 47.652 311.271 48.3613 310.865 49.172C310.511 49.9827 310.333 50.8693 310.333 51.832V76H304.329C302.911 76 301.695 76 300.681 76C299.668 76 298.832 76 298.173 76ZM346.416 76V35.644H357.968L358.348 43.852L355.916 44.764C356.473 42.94 357.461 41.2933 358.88 39.824C360.349 38.304 362.097 37.088 364.124 36.176C366.15 35.264 368.278 34.808 370.508 34.808C373.548 34.808 376.106 35.4413 378.184 36.708C380.261 37.924 381.832 39.7733 382.896 42.256C383.96 44.688 384.492 47.6773 384.492 51.224V76H372.256V52.212C372.256 50.5907 372.028 49.248 371.572 48.184C371.116 47.12 370.406 46.3347 369.444 45.828C368.532 45.2707 367.392 45.0173 366.024 45.068C364.96 45.068 363.972 45.2453 363.06 45.6C362.148 45.904 361.362 46.3853 360.704 47.044C360.045 47.652 359.513 48.3613 359.108 49.172C358.753 49.9827 358.576 50.8693 358.576 51.832V76H352.572C351.153 76 349.937 76 348.924 76C347.91 76 347.074 76 346.416 76ZM413.886 76.76C409.427 76.76 405.551 75.8733 402.258 74.1C398.964 72.276 396.406 69.8187 394.582 66.728C392.758 63.5867 391.846 60.0147 391.846 56.012C391.846 52.9213 392.352 50.084 393.366 47.5C394.379 44.916 395.798 42.6867 397.622 40.812C399.446 38.8867 401.599 37.4173 404.082 36.404C406.615 35.34 409.376 34.808 412.366 34.808C415.203 34.808 417.787 35.3147 420.118 36.328C422.499 37.3413 424.551 38.76 426.274 40.584C427.996 42.408 429.314 44.5613 430.226 47.044C431.138 49.5267 431.543 52.2373 431.442 55.176L431.366 58.444H399.218L397.47 51.604H421.486L420.194 53.048V51.528C420.092 50.2613 419.687 49.1467 418.978 48.184C418.319 47.1707 417.432 46.3853 416.318 45.828C415.203 45.2707 413.936 44.992 412.518 44.992C410.542 44.992 408.844 45.3973 407.426 46.208C406.058 46.968 405.019 48.108 404.31 49.628C403.6 51.0973 403.246 52.9213 403.246 55.1C403.246 57.3293 403.702 59.28 404.614 60.952C405.576 62.5733 406.944 63.84 408.718 64.752C410.542 65.664 412.695 66.12 415.178 66.12C416.9 66.12 418.42 65.8667 419.738 65.36C421.106 64.8533 422.575 63.992 424.146 62.776L429.846 70.832C428.275 72.2 426.603 73.3147 424.83 74.176C423.056 75.0373 421.232 75.6707 419.358 76.076C417.534 76.532 415.71 76.76 413.886 76.76ZM456.897 76.76C452.996 76.76 449.5 75.848 446.409 74.024C443.318 72.2 440.861 69.7173 439.037 66.576C437.264 63.384 436.377 59.7867 436.377 55.784C436.377 51.7813 437.264 48.2093 439.037 45.068C440.861 41.876 443.318 39.368 446.409 37.544C449.5 35.72 452.996 34.808 456.897 34.808C460.494 34.808 463.788 35.4413 466.777 36.708C469.817 37.9747 472.224 39.748 473.997 42.028L467.385 49.932C466.676 49.1213 465.84 48.3613 464.877 47.652C463.914 46.9427 462.85 46.3853 461.685 45.98C460.52 45.5747 459.304 45.372 458.037 45.372C456.112 45.372 454.414 45.828 452.945 46.74C451.476 47.6013 450.336 48.8173 449.525 50.388C448.714 51.9587 448.309 53.7573 448.309 55.784C448.309 57.7093 448.714 59.4573 449.525 61.028C450.386 62.5987 451.552 63.84 453.021 64.752C454.49 65.664 456.162 66.12 458.037 66.12C459.354 66.12 460.57 65.968 461.685 65.664C462.8 65.3093 463.813 64.8027 464.725 64.144C465.688 63.4853 466.574 62.6747 467.385 61.712L473.921 69.692C472.198 71.8707 469.792 73.5933 466.701 74.86C463.661 76.1267 460.393 76.76 456.897 76.76ZM483.947 76V25.46H496.107V76H483.947ZM476.803 46.284V35.644H503.935V46.284H476.803ZM513.392 56.62C512.987 53.5293 512.582 50.3373 512.176 47.044C511.771 43.7507 511.442 40.4827 511.188 37.24C510.935 33.9973 510.808 30.8813 510.808 27.892V21.964H523.652V27.892C523.652 30.932 523.526 34.0987 523.272 37.392C523.019 40.6853 522.69 43.9787 522.284 47.272C521.879 50.5147 521.448 53.6307 520.992 56.62H513.392ZM517.192 76.836C515.115 76.836 513.494 76.2533 512.328 75.088C511.163 73.9227 510.58 72.2507 510.58 70.072C510.58 68.0453 511.188 66.3987 512.404 65.132C513.62 63.8653 515.216 63.232 517.192 63.232C519.27 63.232 520.866 63.84 521.98 65.056C523.146 66.2213 523.728 67.8933 523.728 70.072C523.728 72.048 523.12 73.6693 521.904 74.936C520.688 76.2027 519.118 76.836 517.192 76.836Z" fill="#D4E6F1"/>
<path d="M0 108V61.3333C10 56.8889 38.9032 48 74.5161 48C119.032 48 117.097 61.3333 153.871 61.3333C202.258 61.3333 202.258 48 257.419 48C312.581 48 319.355 61.3333 360 61.3333C407.419 61.3333 425.806 48 468.387 48C502.452 48 530.323 56.8889 540 61.3333V108H0Z" fill="#B4D8E7"/>
</g>
</svg>
