<svg width="264" height="50" viewBox="0 0 264 50" fill="none" xmlns="http://www.w3.org/2000/svg">
<mask id="mask0_130_1504" style="mask-type:alpha" maskUnits="userSpaceOnUse" x="3" y="7" width="258" height="43">
<path d="M8.48 31.8L6.72 26.08L20.6 12H28.64L8.48 31.8ZM3.52 40V12H10.32V40H3.52ZM21.48 40L11.08 26.32L15.68 22.36L29.4 40H21.48ZM38.4534 40.36C36.6668 40.36 35.0668 39.8933 33.6534 38.96C32.2668 38 31.1601 36.6933 30.3334 35.04C29.5068 33.36 29.0934 31.4667 29.0934 29.36C29.0934 27.2 29.5068 25.2933 30.3334 23.64C31.1601 21.9867 32.2934 20.6933 33.7334 19.76C35.1734 18.8 36.8134 18.32 38.6534 18.32C39.6668 18.32 40.5868 18.4667 41.4134 18.76C42.2668 19.0533 43.0134 19.4667 43.6534 20C44.2934 20.5067 44.8401 21.1067 45.2934 21.8C45.7468 22.4667 46.0801 23.1867 46.2934 23.96L44.9734 23.8V18.76H51.3334V40H44.8534V34.88L46.2934 34.84C46.0801 35.5867 45.7334 36.2933 45.2534 36.96C44.7734 37.6267 44.1868 38.2133 43.4934 38.72C42.8001 39.2267 42.0268 39.6267 41.1734 39.92C40.3201 40.2133 39.4134 40.36 38.4534 40.36ZM40.2134 34.96C41.2001 34.96 42.0534 34.7333 42.7734 34.28C43.4934 33.8267 44.0534 33.1867 44.4534 32.36C44.8534 31.5067 45.0534 30.5067 45.0534 29.36C45.0534 28.2133 44.8534 27.2267 44.4534 26.4C44.0534 25.5467 43.4934 24.8933 42.7734 24.44C42.0534 23.96 41.2001 23.72 40.2134 23.72C39.2534 23.72 38.4134 23.96 37.6934 24.44C37.0001 24.8933 36.4534 25.5467 36.0534 26.4C35.6534 27.2267 35.4534 28.2133 35.4534 29.36C35.4534 30.5067 35.6534 31.5067 36.0534 32.36C36.4534 33.1867 37.0001 33.8267 37.6934 34.28C38.4134 34.7333 39.2534 34.96 40.2134 34.96ZM64.1406 40.4C62.0606 40.4 60.2206 40.0667 58.6206 39.4C57.0473 38.7333 55.794 37.84 54.8606 36.72L58.7406 33.36C59.5673 34.1867 60.5006 34.8 61.5406 35.2C62.5806 35.5733 63.5673 35.76 64.5006 35.76C64.874 35.76 65.2073 35.72 65.5006 35.64C65.794 35.56 66.034 35.4533 66.2206 35.32C66.434 35.16 66.594 34.9867 66.7006 34.8C66.8073 34.5867 66.8606 34.3467 66.8606 34.08C66.8606 33.5467 66.6206 33.1333 66.1406 32.84C65.9006 32.7067 65.5006 32.5467 64.9406 32.36C64.3806 32.1733 63.6606 31.96 62.7806 31.72C61.5273 31.4 60.434 31.0267 59.5006 30.6C58.594 30.1467 57.8473 29.6267 57.2606 29.04C56.7273 28.48 56.314 27.8667 56.0206 27.2C55.7273 26.5067 55.5806 25.7333 55.5806 24.88C55.5806 23.8933 55.8073 23 56.2606 22.2C56.7406 21.4 57.3673 20.7067 58.1406 20.12C58.9406 19.5333 59.8473 19.0933 60.8606 18.8C61.9006 18.48 62.9673 18.32 64.0606 18.32C65.234 18.32 66.354 18.4533 67.4206 18.72C68.4873 18.9867 69.474 19.36 70.3806 19.84C71.314 20.32 72.1406 20.8933 72.8606 21.56L69.5006 25.32C69.0206 24.8667 68.474 24.4667 67.8606 24.12C67.274 23.7467 66.6606 23.4533 66.0206 23.24C65.3806 23.0267 64.794 22.92 64.2606 22.92C63.8606 22.92 63.5006 22.96 63.1806 23.04C62.8873 23.0933 62.634 23.2 62.4206 23.36C62.2073 23.4933 62.0473 23.6667 61.9406 23.88C61.834 24.0667 61.7806 24.2933 61.7806 24.56C61.7806 24.8267 61.8473 25.08 61.9806 25.32C62.1406 25.56 62.354 25.76 62.6206 25.92C62.8873 26.08 63.314 26.2667 63.9006 26.48C64.4873 26.6667 65.2873 26.9067 66.3006 27.2C67.554 27.5467 68.634 27.9333 69.5406 28.36C70.4473 28.7867 71.1673 29.2933 71.7006 29.88C72.1273 30.3333 72.4473 30.8667 72.6606 31.48C72.874 32.0667 72.9806 32.7067 72.9806 33.4C72.9806 34.76 72.594 35.9733 71.8206 37.04C71.074 38.08 70.034 38.9067 68.7006 39.52C67.3673 40.1067 65.8473 40.4 64.1406 40.4ZM83.9453 40.4C81.8653 40.4 80.0253 40.0667 78.4253 39.4C76.852 38.7333 75.5986 37.84 74.6653 36.72L78.5453 33.36C79.372 34.1867 80.3053 34.8 81.3453 35.2C82.3853 35.5733 83.372 35.76 84.3053 35.76C84.6786 35.76 85.012 35.72 85.3053 35.64C85.5986 35.56 85.8386 35.4533 86.0253 35.32C86.2386 35.16 86.3986 34.9867 86.5053 34.8C86.612 34.5867 86.6653 34.3467 86.6653 34.08C86.6653 33.5467 86.4253 33.1333 85.9453 32.84C85.7053 32.7067 85.3053 32.5467 84.7453 32.36C84.1853 32.1733 83.4653 31.96 82.5853 31.72C81.332 31.4 80.2386 31.0267 79.3053 30.6C78.3986 30.1467 77.652 29.6267 77.0653 29.04C76.532 28.48 76.1186 27.8667 75.8253 27.2C75.532 26.5067 75.3853 25.7333 75.3853 24.88C75.3853 23.8933 75.612 23 76.0653 22.2C76.5453 21.4 77.172 20.7067 77.9453 20.12C78.7453 19.5333 79.652 19.0933 80.6653 18.8C81.7053 18.48 82.772 18.32 83.8653 18.32C85.0386 18.32 86.1586 18.4533 87.2253 18.72C88.292 18.9867 89.2786 19.36 90.1853 19.84C91.1186 20.32 91.9453 20.8933 92.6653 21.56L89.3053 25.32C88.8253 24.8667 88.2786 24.4667 87.6653 24.12C87.0786 23.7467 86.4653 23.4533 85.8253 23.24C85.1853 23.0267 84.5986 22.92 84.0653 22.92C83.6653 22.92 83.3053 22.96 82.9853 23.04C82.692 23.0933 82.4386 23.2 82.2253 23.36C82.012 23.4933 81.852 23.6667 81.7453 23.88C81.6386 24.0667 81.5853 24.2933 81.5853 24.56C81.5853 24.8267 81.652 25.08 81.7853 25.32C81.9453 25.56 82.1586 25.76 82.4253 25.92C82.692 26.08 83.1186 26.2667 83.7053 26.48C84.292 26.6667 85.092 26.9067 86.1053 27.2C87.3586 27.5467 88.4386 27.9333 89.3453 28.36C90.252 28.7867 90.972 29.2933 91.5053 29.88C91.932 30.3333 92.252 30.8667 92.4653 31.48C92.6786 32.0667 92.7853 32.7067 92.7853 33.4C92.7853 34.76 92.3986 35.9733 91.6253 37.04C90.8786 38.08 89.8386 38.9067 88.5053 39.52C87.172 40.1067 85.652 40.4 83.9453 40.4ZM96.95 40V18.76H103.35V40H96.95ZM100.15 14.56C98.95 14.56 98.0033 14.28 97.31 13.72C96.6433 13.1333 96.31 12.3067 96.31 11.24C96.31 10.28 96.6567 9.49333 97.35 8.88C98.0433 8.26666 98.9767 7.96 100.15 7.96C101.35 7.96 102.283 8.25333 102.95 8.84C103.617 9.4 103.95 10.2 103.95 11.24C103.95 12.2267 103.603 13.0267 102.91 13.64C102.243 14.2533 101.323 14.56 100.15 14.56ZM117.403 40.44C115.563 40.44 113.923 39.9733 112.483 39.04C111.07 38.08 109.95 36.7733 109.123 35.12C108.297 33.44 107.883 31.5333 107.883 29.4C107.883 27.2667 108.297 25.3733 109.123 23.72C109.95 22.04 111.083 20.72 112.523 19.76C113.963 18.8 115.617 18.32 117.483 18.32C118.443 18.32 119.363 18.4667 120.243 18.76C121.123 19.0533 121.923 19.4533 122.643 19.96C123.363 20.4667 123.95 21.0533 124.403 21.72C124.857 22.36 125.123 23.0267 125.203 23.72L123.683 24.08V10.4H130.123V40H124.163L123.803 35.16L125.083 35.36C125.003 36.0267 124.737 36.6667 124.283 37.28C123.857 37.8933 123.297 38.44 122.603 38.92C121.91 39.3733 121.11 39.7333 120.203 40C119.323 40.2933 118.39 40.44 117.403 40.44ZM119.043 35.12C120.03 35.12 120.883 34.88 121.603 34.4C122.323 33.92 122.87 33.2533 123.243 32.4C123.643 31.5467 123.843 30.5467 123.843 29.4C123.843 28.2267 123.643 27.2133 123.243 26.36C122.87 25.5067 122.323 24.84 121.603 24.36C120.883 23.88 120.03 23.64 119.043 23.64C118.057 23.64 117.203 23.88 116.483 24.36C115.79 24.84 115.243 25.5067 114.843 26.36C114.443 27.2133 114.243 28.2267 114.243 29.4C114.243 30.5467 114.443 31.5467 114.843 32.4C115.243 33.2533 115.79 33.92 116.483 34.4C117.203 34.88 118.057 35.12 119.043 35.12ZM138.215 49.2L143.055 37.8L143.135 41.08L132.895 18.76H140.135L144.615 29.44C144.855 29.9733 145.082 30.5467 145.295 31.16C145.509 31.7733 145.669 32.36 145.775 32.92L144.895 33.44C145.055 33.04 145.229 32.5467 145.415 31.96C145.629 31.3467 145.855 30.6933 146.095 30L150.015 18.76H157.295L148.255 40L144.575 49.2H138.215ZM179.913 40V18H171.593V12H195.233V18H186.713V40H179.913ZM196.981 40V18.76H203.061L203.341 25.68L202.141 24.36C202.461 23.2133 202.981 22.1867 203.701 21.28C204.447 20.3733 205.314 19.6533 206.301 19.12C207.287 18.5867 208.341 18.32 209.461 18.32C209.941 18.32 210.381 18.36 210.781 18.44C211.207 18.52 211.594 18.6133 211.941 18.72L210.181 25.8C209.887 25.6133 209.487 25.4667 208.981 25.36C208.501 25.2267 207.994 25.16 207.461 25.16C206.874 25.16 206.327 25.2667 205.821 25.48C205.314 25.6667 204.887 25.9467 204.541 26.32C204.194 26.6933 203.914 27.1333 203.701 27.64C203.514 28.1467 203.421 28.72 203.421 29.36V40H196.981ZM222.125 40.36C220.339 40.36 218.739 39.8933 217.325 38.96C215.939 38 214.832 36.6933 214.005 35.04C213.179 33.36 212.765 31.4667 212.765 29.36C212.765 27.2 213.179 25.2933 214.005 23.64C214.832 21.9867 215.965 20.6933 217.405 19.76C218.845 18.8 220.485 18.32 222.325 18.32C223.339 18.32 224.259 18.4667 225.085 18.76C225.939 19.0533 226.685 19.4667 227.325 20C227.965 20.5067 228.512 21.1067 228.965 21.8C229.419 22.4667 229.752 23.1867 229.965 23.96L228.645 23.8V18.76H235.005V40H228.525V34.88L229.965 34.84C229.752 35.5867 229.405 36.2933 228.925 36.96C228.445 37.6267 227.859 38.2133 227.165 38.72C226.472 39.2267 225.699 39.6267 224.845 39.92C223.992 40.2133 223.085 40.36 222.125 40.36ZM223.885 34.96C224.872 34.96 225.725 34.7333 226.445 34.28C227.165 33.8267 227.725 33.1867 228.125 32.36C228.525 31.5067 228.725 30.5067 228.725 29.36C228.725 28.2133 228.525 27.2267 228.125 26.4C227.725 25.5467 227.165 24.8933 226.445 24.44C225.725 23.96 224.872 23.72 223.885 23.72C222.925 23.72 222.085 23.96 221.365 24.44C220.672 24.8933 220.125 25.5467 219.725 26.4C219.325 27.2267 219.125 28.2133 219.125 29.36C219.125 30.5067 219.325 31.5067 219.725 32.36C220.125 33.1867 220.672 33.8267 221.365 34.28C222.085 34.7333 222.925 34.96 223.885 34.96ZM240.653 40V18.76H246.733L246.933 23.08L245.653 23.56C245.946 22.6 246.466 21.7333 247.213 20.96C247.986 20.16 248.906 19.52 249.973 19.04C251.039 18.56 252.159 18.32 253.333 18.32C254.933 18.32 256.279 18.6533 257.373 19.32C258.466 19.96 259.293 20.9333 259.852 22.24C260.413 23.52 260.693 25.0933 260.693 26.96V40H254.253V27.48C254.253 26.6267 254.133 25.92 253.893 25.36C253.653 24.8 253.279 24.3867 252.773 24.12C252.293 23.8267 251.693 23.6933 250.973 23.72C250.413 23.72 249.893 23.8133 249.413 24C248.933 24.16 248.519 24.4133 248.173 24.76C247.826 25.08 247.546 25.4533 247.333 25.88C247.146 26.3067 247.053 26.7733 247.053 27.28V40H243.893C243.146 40 242.506 40 241.973 40C241.439 40 240.999 40 240.653 40Z" fill="#D4E6F1"/>
</mask>
<g mask="url(#mask0_130_1504)">
<path d="M8.48 31.8L6.72 26.08L20.6 12H28.64L8.48 31.8ZM3.52 40V12H10.32V40H3.52ZM21.48 40L11.08 26.32L15.68 22.36L29.4 40H21.48ZM38.4534 40.36C36.6668 40.36 35.0668 39.8933 33.6534 38.96C32.2668 38 31.1601 36.6933 30.3334 35.04C29.5068 33.36 29.0934 31.4667 29.0934 29.36C29.0934 27.2 29.5068 25.2933 30.3334 23.64C31.1601 21.9867 32.2934 20.6933 33.7334 19.76C35.1734 18.8 36.8134 18.32 38.6534 18.32C39.6668 18.32 40.5868 18.4667 41.4134 18.76C42.2668 19.0533 43.0134 19.4667 43.6534 20C44.2934 20.5067 44.8401 21.1067 45.2934 21.8C45.7468 22.4667 46.0801 23.1867 46.2934 23.96L44.9734 23.8V18.76H51.3334V40H44.8534V34.88L46.2934 34.84C46.0801 35.5867 45.7334 36.2933 45.2534 36.96C44.7734 37.6267 44.1868 38.2133 43.4934 38.72C42.8001 39.2267 42.0268 39.6267 41.1734 39.92C40.3201 40.2133 39.4134 40.36 38.4534 40.36ZM40.2134 34.96C41.2001 34.96 42.0534 34.7333 42.7734 34.28C43.4934 33.8267 44.0534 33.1867 44.4534 32.36C44.8534 31.5067 45.0534 30.5067 45.0534 29.36C45.0534 28.2133 44.8534 27.2267 44.4534 26.4C44.0534 25.5467 43.4934 24.8933 42.7734 24.44C42.0534 23.96 41.2001 23.72 40.2134 23.72C39.2534 23.72 38.4134 23.96 37.6934 24.44C37.0001 24.8933 36.4534 25.5467 36.0534 26.4C35.6534 27.2267 35.4534 28.2133 35.4534 29.36C35.4534 30.5067 35.6534 31.5067 36.0534 32.36C36.4534 33.1867 37.0001 33.8267 37.6934 34.28C38.4134 34.7333 39.2534 34.96 40.2134 34.96ZM64.1406 40.4C62.0606 40.4 60.2206 40.0667 58.6206 39.4C57.0473 38.7333 55.794 37.84 54.8606 36.72L58.7406 33.36C59.5673 34.1867 60.5006 34.8 61.5406 35.2C62.5806 35.5733 63.5673 35.76 64.5006 35.76C64.874 35.76 65.2073 35.72 65.5006 35.64C65.794 35.56 66.034 35.4533 66.2206 35.32C66.434 35.16 66.594 34.9867 66.7006 34.8C66.8073 34.5867 66.8606 34.3467 66.8606 34.08C66.8606 33.5467 66.6206 33.1333 66.1406 32.84C65.9006 32.7067 65.5006 32.5467 64.9406 32.36C64.3806 32.1733 63.6606 31.96 62.7806 31.72C61.5273 31.4 60.434 31.0267 59.5006 30.6C58.594 30.1467 57.8473 29.6267 57.2606 29.04C56.7273 28.48 56.314 27.8667 56.0206 27.2C55.7273 26.5067 55.5806 25.7333 55.5806 24.88C55.5806 23.8933 55.8073 23 56.2606 22.2C56.7406 21.4 57.3673 20.7067 58.1406 20.12C58.9406 19.5333 59.8473 19.0933 60.8606 18.8C61.9006 18.48 62.9673 18.32 64.0606 18.32C65.234 18.32 66.354 18.4533 67.4206 18.72C68.4873 18.9867 69.474 19.36 70.3806 19.84C71.314 20.32 72.1406 20.8933 72.8606 21.56L69.5006 25.32C69.0206 24.8667 68.474 24.4667 67.8606 24.12C67.274 23.7467 66.6606 23.4533 66.0206 23.24C65.3806 23.0267 64.794 22.92 64.2606 22.92C63.8606 22.92 63.5006 22.96 63.1806 23.04C62.8873 23.0933 62.634 23.2 62.4206 23.36C62.2073 23.4933 62.0473 23.6667 61.9406 23.88C61.834 24.0667 61.7806 24.2933 61.7806 24.56C61.7806 24.8267 61.8473 25.08 61.9806 25.32C62.1406 25.56 62.354 25.76 62.6206 25.92C62.8873 26.08 63.314 26.2667 63.9006 26.48C64.4873 26.6667 65.2873 26.9067 66.3006 27.2C67.554 27.5467 68.634 27.9333 69.5406 28.36C70.4473 28.7867 71.1673 29.2933 71.7006 29.88C72.1273 30.3333 72.4473 30.8667 72.6606 31.48C72.874 32.0667 72.9806 32.7067 72.9806 33.4C72.9806 34.76 72.594 35.9733 71.8206 37.04C71.074 38.08 70.034 38.9067 68.7006 39.52C67.3673 40.1067 65.8473 40.4 64.1406 40.4ZM83.9453 40.4C81.8653 40.4 80.0253 40.0667 78.4253 39.4C76.852 38.7333 75.5986 37.84 74.6653 36.72L78.5453 33.36C79.372 34.1867 80.3053 34.8 81.3453 35.2C82.3853 35.5733 83.372 35.76 84.3053 35.76C84.6786 35.76 85.012 35.72 85.3053 35.64C85.5986 35.56 85.8386 35.4533 86.0253 35.32C86.2386 35.16 86.3986 34.9867 86.5053 34.8C86.612 34.5867 86.6653 34.3467 86.6653 34.08C86.6653 33.5467 86.4253 33.1333 85.9453 32.84C85.7053 32.7067 85.3053 32.5467 84.7453 32.36C84.1853 32.1733 83.4653 31.96 82.5853 31.72C81.332 31.4 80.2386 31.0267 79.3053 30.6C78.3986 30.1467 77.652 29.6267 77.0653 29.04C76.532 28.48 76.1186 27.8667 75.8253 27.2C75.532 26.5067 75.3853 25.7333 75.3853 24.88C75.3853 23.8933 75.612 23 76.0653 22.2C76.5453 21.4 77.172 20.7067 77.9453 20.12C78.7453 19.5333 79.652 19.0933 80.6653 18.8C81.7053 18.48 82.772 18.32 83.8653 18.32C85.0386 18.32 86.1586 18.4533 87.2253 18.72C88.292 18.9867 89.2786 19.36 90.1853 19.84C91.1186 20.32 91.9453 20.8933 92.6653 21.56L89.3053 25.32C88.8253 24.8667 88.2786 24.4667 87.6653 24.12C87.0786 23.7467 86.4653 23.4533 85.8253 23.24C85.1853 23.0267 84.5986 22.92 84.0653 22.92C83.6653 22.92 83.3053 22.96 82.9853 23.04C82.692 23.0933 82.4386 23.2 82.2253 23.36C82.012 23.4933 81.852 23.6667 81.7453 23.88C81.6386 24.0667 81.5853 24.2933 81.5853 24.56C81.5853 24.8267 81.652 25.08 81.7853 25.32C81.9453 25.56 82.1586 25.76 82.4253 25.92C82.692 26.08 83.1186 26.2667 83.7053 26.48C84.292 26.6667 85.092 26.9067 86.1053 27.2C87.3586 27.5467 88.4386 27.9333 89.3453 28.36C90.252 28.7867 90.972 29.2933 91.5053 29.88C91.932 30.3333 92.252 30.8667 92.4653 31.48C92.6786 32.0667 92.7853 32.7067 92.7853 33.4C92.7853 34.76 92.3986 35.9733 91.6253 37.04C90.8786 38.08 89.8386 38.9067 88.5053 39.52C87.172 40.1067 85.652 40.4 83.9453 40.4ZM96.95 40V18.76H103.35V40H96.95ZM100.15 14.56C98.95 14.56 98.0033 14.28 97.31 13.72C96.6433 13.1333 96.31 12.3067 96.31 11.24C96.31 10.28 96.6567 9.49333 97.35 8.88C98.0433 8.26666 98.9767 7.96 100.15 7.96C101.35 7.96 102.283 8.25333 102.95 8.84C103.617 9.4 103.95 10.2 103.95 11.24C103.95 12.2267 103.603 13.0267 102.91 13.64C102.243 14.2533 101.323 14.56 100.15 14.56ZM117.403 40.44C115.563 40.44 113.923 39.9733 112.483 39.04C111.07 38.08 109.95 36.7733 109.123 35.12C108.297 33.44 107.883 31.5333 107.883 29.4C107.883 27.2667 108.297 25.3733 109.123 23.72C109.95 22.04 111.083 20.72 112.523 19.76C113.963 18.8 115.617 18.32 117.483 18.32C118.443 18.32 119.363 18.4667 120.243 18.76C121.123 19.0533 121.923 19.4533 122.643 19.96C123.363 20.4667 123.95 21.0533 124.403 21.72C124.857 22.36 125.123 23.0267 125.203 23.72L123.683 24.08V10.4H130.123V40H124.163L123.803 35.16L125.083 35.36C125.003 36.0267 124.737 36.6667 124.283 37.28C123.857 37.8933 123.297 38.44 122.603 38.92C121.91 39.3733 121.11 39.7333 120.203 40C119.323 40.2933 118.39 40.44 117.403 40.44ZM119.043 35.12C120.03 35.12 120.883 34.88 121.603 34.4C122.323 33.92 122.87 33.2533 123.243 32.4C123.643 31.5467 123.843 30.5467 123.843 29.4C123.843 28.2267 123.643 27.2133 123.243 26.36C122.87 25.5067 122.323 24.84 121.603 24.36C120.883 23.88 120.03 23.64 119.043 23.64C118.057 23.64 117.203 23.88 116.483 24.36C115.79 24.84 115.243 25.5067 114.843 26.36C114.443 27.2133 114.243 28.2267 114.243 29.4C114.243 30.5467 114.443 31.5467 114.843 32.4C115.243 33.2533 115.79 33.92 116.483 34.4C117.203 34.88 118.057 35.12 119.043 35.12ZM138.215 49.2L143.055 37.8L143.135 41.08L132.895 18.76H140.135L144.615 29.44C144.855 29.9733 145.082 30.5467 145.295 31.16C145.509 31.7733 145.669 32.36 145.775 32.92L144.895 33.44C145.055 33.04 145.229 32.5467 145.415 31.96C145.629 31.3467 145.855 30.6933 146.095 30L150.015 18.76H157.295L148.255 40L144.575 49.2H138.215ZM179.913 40V18H171.593V12H195.233V18H186.713V40H179.913ZM196.981 40V18.76H203.061L203.341 25.68L202.141 24.36C202.461 23.2133 202.981 22.1867 203.701 21.28C204.447 20.3733 205.314 19.6533 206.301 19.12C207.287 18.5867 208.341 18.32 209.461 18.32C209.941 18.32 210.381 18.36 210.781 18.44C211.207 18.52 211.594 18.6133 211.941 18.72L210.181 25.8C209.887 25.6133 209.487 25.4667 208.981 25.36C208.501 25.2267 207.994 25.16 207.461 25.16C206.874 25.16 206.327 25.2667 205.821 25.48C205.314 25.6667 204.887 25.9467 204.541 26.32C204.194 26.6933 203.914 27.1333 203.701 27.64C203.514 28.1467 203.421 28.72 203.421 29.36V40H196.981ZM222.125 40.36C220.339 40.36 218.739 39.8933 217.325 38.96C215.939 38 214.832 36.6933 214.005 35.04C213.179 33.36 212.765 31.4667 212.765 29.36C212.765 27.2 213.179 25.2933 214.005 23.64C214.832 21.9867 215.965 20.6933 217.405 19.76C218.845 18.8 220.485 18.32 222.325 18.32C223.339 18.32 224.259 18.4667 225.085 18.76C225.939 19.0533 226.685 19.4667 227.325 20C227.965 20.5067 228.512 21.1067 228.965 21.8C229.419 22.4667 229.752 23.1867 229.965 23.96L228.645 23.8V18.76H235.005V40H228.525V34.88L229.965 34.84C229.752 35.5867 229.405 36.2933 228.925 36.96C228.445 37.6267 227.859 38.2133 227.165 38.72C226.472 39.2267 225.699 39.6267 224.845 39.92C223.992 40.2133 223.085 40.36 222.125 40.36ZM223.885 34.96C224.872 34.96 225.725 34.7333 226.445 34.28C227.165 33.8267 227.725 33.1867 228.125 32.36C228.525 31.5067 228.725 30.5067 228.725 29.36C228.725 28.2133 228.525 27.2267 228.125 26.4C227.725 25.5467 227.165 24.8933 226.445 24.44C225.725 23.96 224.872 23.72 223.885 23.72C222.925 23.72 222.085 23.96 221.365 24.44C220.672 24.8933 220.125 25.5467 219.725 26.4C219.325 27.2267 219.125 28.2133 219.125 29.36C219.125 30.5067 219.325 31.5067 219.725 32.36C220.125 33.1867 220.672 33.8267 221.365 34.28C222.085 34.7333 222.925 34.96 223.885 34.96ZM240.653 40V18.76H246.733L246.933 23.08L245.653 23.56C245.946 22.6 246.466 21.7333 247.213 20.96C247.986 20.16 248.906 19.52 249.973 19.04C251.039 18.56 252.159 18.32 253.333 18.32C254.933 18.32 256.279 18.6533 257.373 19.32C258.466 19.96 259.293 20.9333 259.852 22.24C260.413 23.52 260.693 25.0933 260.693 26.96V40H254.253V27.48C254.253 26.6267 254.133 25.92 253.893 25.36C253.653 24.8 253.279 24.3867 252.773 24.12C252.293 23.8267 251.693 23.6933 250.973 23.72C250.413 23.72 249.893 23.8133 249.413 24C248.933 24.16 248.519 24.4133 248.173 24.76C247.826 25.08 247.546 25.4533 247.333 25.88C247.146 26.3067 247.053 26.7733 247.053 27.28V40H243.893C243.146 40 242.506 40 241.973 40C241.439 40 240.999 40 240.653 40Z" fill="#D4E6F1"/>
<path d="M-11 56V31.8889C-5.83333 29.5926 9.1 25 27.5 25C50.5 25 49.5 31.8889 68.5 31.8889C93.5 31.8889 93.5 25 122 25C150.5 25 154 31.8889 175 31.8889C199.5 31.8889 209 25 231 25C248.6 25 263 29.5926 268 31.8889V56H-11Z" fill="#B4D8E7"/>
<path d="M-11 56V31.8889C-5.83333 29.5926 9.1 25 27.5 25C50.5 25 49.5 31.8889 68.5 31.8889C93.5 31.8889 93.5 25 122 25C150.5 25 154 31.8889 175 31.8889C199.5 31.8889 209 25 231 25C248.6 25 263 29.5926 268 31.8889V56H-11Z" fill="#B4D8E7"/>
</g>
</svg>
