<svg width="2623" height="159" viewBox="0 0 2623 159" fill="none" xmlns="http://www.w3.org/2000/svg">
<path d="M2370.05 133.721C2545.46 133.053 2555.4 155.455 2623 159V0H0.00471445V78.2893L0 157.335C115.959 157.376 164.98 132.957 286.461 132.999C407.942 133.041 408.576 157.27 598.161 157.335C787.745 157.401 752.072 128.971 934.294 129.034C1116.52 129.097 1081.24 149.669 1316.84 149.751C1552.44 149.833 1585.49 135.271 1668.32 135.299C1751.15 135.328 1766.43 144.988 1980.36 146.337C2194.3 147.687 2150.79 134.556 2370.05 133.721Z" fill="#EDF4F8"/>
<path d="M419.6 97.1246C240.143 97.0625 25.2488 103.275 0.0028371 109.766L0.00471445 0H2623V104.924C2474.07 104.872 2446.79 125.908 2230.35 125.908C2013.91 125.908 2029.99 101.655 1678.8 101.533C1327.61 101.411 1398.49 122.742 1021.56 122.612C644.624 122.481 643.922 97.2023 419.6 97.1246Z" fill="#D4E6F1"/>
<path d="M253.941 77.8879C149.855 77.2673 17.5511 75.738 0.00471445 78.2893V0H2623V79.0964C2453.7 79.0378 2448.21 96.7324 2288.11 96.677C2128.02 96.6215 2197.15 78.5606 1830.96 78.4339C1464.77 78.3071 1588.51 99.3567 1413.7 99.2962C1238.88 99.2357 1203.92 73.2838 968.377 73.2023C732.836 73.1207 779.826 96.5201 597.002 96.0915C414.177 95.6628 384.048 78.6636 253.941 77.8879Z" fill="#B4D8E7"/>
<path d="M2308.46 70.1877C2555.2 70.7077 2608.42 63.727 2623 60.533V30.1977V0H0.00471445L0.00375257 56.2399C62.5989 56.2616 114.976 66.9315 225.438 66.9315C300.925 66.9315 284.606 54.6385 479.755 54.7061C674.905 54.7737 621.152 65.4029 729.774 65.4405C838.395 65.4781 820.347 54.824 1004.45 54.8877C1188.55 54.9515 1149.64 67.2514 1411.07 67.3419C1672.49 67.4324 1628.56 55.1038 1788.73 55.1593C1948.9 55.2147 2000.05 69.5377 2308.46 70.1877Z" fill="#215984"/>
<path d="M367.355 29.8791C193.276 30.4009 51.8552 39.5895 0.00954673 44.3909L0.00471445 0H2623V30.1977C2434.31 30.1366 2464.15 45.7357 2135.83 45.6293C1807.51 45.5229 1835.35 30.3548 1541 30.2594C1246.64 30.164 1362.21 45.3786 999.929 45.2612C637.647 45.1439 584.953 29.2269 367.355 29.8791Z" fill="#033962"/>
</svg>
