<svg width="2623" height="159" viewBox="0 0 2623 159" fill="none" xmlns="http://www.w3.org/2000/svg">
<path d="M2370.05 25.2794C2545.46 25.9473 2555.4 3.5453 2623 0V159H0.00471445V80.7107L0 1.66455C115.959 1.62441 164.98 26.0428 286.461 26.0007C407.942 25.9586 408.576 1.73018 598.161 1.66455C787.745 1.59891 752.072 30.0294 934.294 29.9663C1116.52 29.9032 1081.24 9.3305 1316.84 9.24894C1552.44 9.16737 1585.49 23.7293 1668.32 23.7006C1751.15 23.672 1766.43 14.0118 1980.36 12.6626C2194.3 11.3133 2150.79 24.4444 2370.05 25.2794Z" fill="#EDF4F8"/>
<path d="M419.6 61.8754C240.143 61.9375 25.2488 55.725 0.0028371 49.2335L0.00471445 159H2623V54.0761C2474.07 54.1277 2446.79 33.0916 2230.35 33.0916C2013.91 33.0916 2029.99 57.3455 1678.8 57.4671C1327.61 57.5887 1398.49 36.2576 1021.56 36.3881C644.624 36.5186 643.922 61.7977 419.6 61.8754Z" fill="#D4E6F1"/>
<path d="M253.941 81.1121C149.855 81.7327 17.5511 83.262 0.00471445 80.7107V159H2623V79.9036C2453.7 79.9622 2448.21 62.2676 2288.11 62.323C2128.02 62.3785 2197.15 80.4394 1830.96 80.5661C1464.77 80.6929 1588.51 59.6433 1413.7 59.7038C1238.88 59.7643 1203.92 85.7162 968.377 85.7977C732.836 85.8793 779.826 62.4799 597.002 62.9085C414.177 63.3372 384.048 80.3364 253.941 81.1121Z" fill="#B4D8E7"/>
<path d="M2308.46 88.8123C2555.2 88.2923 2608.42 95.273 2623 98.467V128.802V159H0.00471445L0.00375257 102.76C62.5989 102.738 114.976 92.0685 225.438 92.0685C300.925 92.0685 284.606 104.361 479.755 104.294C674.905 104.226 621.152 93.5971 729.774 93.5595C838.395 93.5219 820.347 104.176 1004.45 104.112C1188.55 104.049 1149.64 91.7486 1411.07 91.6581C1672.49 91.5676 1628.56 103.896 1788.73 103.841C1948.9 103.785 2000.05 89.4623 2308.46 88.8123Z" fill="#215984"/>
<path d="M367.355 129.121C193.276 128.599 51.8552 119.41 0.00954673 114.609L0.00471445 159H2623V128.802C2434.31 128.863 2464.15 113.264 2135.83 113.371C1807.51 113.477 1835.35 128.645 1541 128.741C1246.64 128.836 1362.21 113.621 999.929 113.739C637.647 113.856 584.953 129.773 367.355 129.121Z" fill="#033962"/>
</svg>
